<svg xmlns="http://www.w3.org/2000/svg" xmlns:xlink="http://www.w3.org/1999/xlink" preserveAspectRatio="xMidYMid meet" width="876" height="1004" viewBox="0 0 876 1004" style="width:100%;height:100%"><defs><animateTransform repeatCount="indefinite" dur="5.48s" begin="0s" xlink:href="#_R_G_L_4_G" fill="freeze" attributeName="transform" from="0" to="0" type="rotate" additive="sum" keyTimes="0;0.0291971;0.0729927;0.1167883;0.1605839;0.2335766;0.3065693;0.350365;0.3941606;0.4379562;0.4963504;0.5693431;0.5976642;0.6259854;0.6543139;0.6842701;0.7125912;0.7445255;0.7591241;0.7737226;0.7932701;0.8139489;0.8334891;0.8467153;0.8608978;0.8759124;0.8900949;0.9051095;0.919292;0.9343066;0.9484891;0.9635036;1" values="0;0;-27;0;-27;0;0;-27;0;-27;0;0;-27;0;-27;0;-27;0;-27;0;-27;0;-27;0;-27;0;-27;0;-27;0;-27;0;0" keySplines="0.633 0 0.243 1;0.633 0 0.243 1;0.633 0 0.243 1;0.633 0 0.243 1;0.513 0 0.412 1;0.333 0 0.667 1;0.633 0 0.243 1;0.633 0 0.243 1;0.633 0 0.243 1;0.513 0 0.412 1;0.167 0 0.667 1;0.633 0 0.243 1;0.633 0 0.243 1;0.633 0 0.243 1;0.513 0 0.667 1;0.633 0 0.243 1;0.633 0 0.243 1;0.633 0 0.243 1;0.513 0 0.243 1;0.633 0 0.243 1;0.513 0 0.243 1;0.633 0 0.243 1;0.513 0 0.412 1;0.167 0 0.243 1;0.513 0 0.412 1;0.167 0 0.243 1;0.513 0 0.412 1;0.167 0 0.243 1;0.513 0 0.412 1;0.167 0 0.243 1;0.513 0 0.833 1;0 0 0 0" calcMode="spline"/><animateTransform repeatCount="indefinite" dur="5.48s" begin="0s" xlink:href="#_R_G_L_4_G" fill="freeze" attributeName="transform" from="-490 24" to="-490 24" type="translate" additive="sum" keyTimes="0;1" values="-490 24;-490 24" keySplines="0 0 1 1" calcMode="spline"/><animateMotion repeatCount="indefinite" dur="5.48s" begin="0s" xlink:href="#_R_G_L_3_G" fill="freeze" keyTimes="0;0.1824818;0.5985401;0.7910365;0.9927007;1" path="M518 408 C518,408 518,408 518,408 C518,408 518,408 518,408 C518,411.33 518,428 518,428 C518,428 518,411.33 518,408 C518,408 518,408 518,408 " keyPoints="0;0;0;0.5;1;1" keySplines="0.506 0.506 0.438 0.438;0.409 0.409 0.566 0.566;0.539 0 0.394 1;0.53 0 0.407 1;0 0 0 0" calcMode="spline"/><animateTransform repeatCount="indefinite" dur="5.48s" begin="0s" xlink:href="#_R_G_L_3_G" fill="freeze" attributeName="transform" from="0" to="0" type="rotate" additive="sum" keyTimes="0;0.1824818;0.5985401;0.7910365;0.9927007;1" values="0;-14;-14;22;0;0" keySplines="0.506 0 0.438 1;0.409 0 0.566 1;0.539 0 0.394 1;0.53 0 0.407 1;0 0 0 0" calcMode="spline"/><animateTransform repeatCount="indefinite" dur="5.48s" begin="0s" xlink:href="#_R_G_L_3_G" fill="freeze" attributeName="transform" from="1 1" to="1 1" type="scale" additive="sum" keyTimes="0;0.0875912;0.1824818;0.5985401;0.6909416;0.7910365;0.8878321;0.9927007;1" values="1 1;1.01 0.99;1 1;1 1;1.01 0.99;1 1;1.01 0.99;1 1;1 1" keySplines="0.167 0.167 0.833 0.833;0.167 0.167 0.833 0.833;0.167 0.167 0.833 0.833;0.167 0.167 0.833 0.833;0.167 0.167 0.833 0.833;0.167 0.167 0.833 0.833;0.167 0.167 0.833 0.833;0 0 0 0" calcMode="spline"/><animateTransform repeatCount="indefinite" dur="5.48s" begin="0s" xlink:href="#_R_G_L_3_G" fill="freeze" attributeName="transform" from="-458 124" to="-458 124" type="translate" additive="sum" keyTimes="0;1" values="-458 124;-458 124" keySplines="0 0 1 1" calcMode="spline"/><animateMotion repeatCount="indefinite" dur="5.48s" begin="0s" xlink:href="#_R_G_L_2_G" fill="freeze" keyTimes="0;0.2213942;0.4562044;0.6775985;0.9927007;1" path="M718.84 419.89 C720.99,420.61 731.72,424.19 731.72,424.19 C731.72,424.19 718.84,419.89 718.84,419.89 C718.84,419.89 731.72,424.19 731.72,424.19 C731.72,424.19 720.99,420.61 718.84,419.89 C718.84,419.89 718.84,419.89 718.84,419.89 " keyPoints="0;0.25;0.5;0.75;1;1" keySplines="0.333 0 0.667 1;0.333 0 0.667 1;0.333 0 0.667 1;0.333 0 0.667 1;0 0 0 0" calcMode="spline"/><animateTransform repeatCount="indefinite" dur="5.48s" begin="0s" xlink:href="#_R_G_L_2_G" fill="freeze" attributeName="transform" from="-658.838 112.109" to="-658.838 112.109" type="translate" additive="sum" keyTimes="0;1" values="-658.838 112.109;-658.838 112.109" keySplines="0 0 1 1" calcMode="spline"/><animateMotion repeatCount="indefinite" dur="5.48s" begin="0s" xlink:href="#_R_G_L_1_G" fill="freeze" keyTimes="0;0.2213942;0.4562044;0.6775985;0.9927007;1" path="M198.45 151.55 C198.45,148.69 198.45,134.38 198.45,134.38 C198.45,134.38 198.45,151.55 198.45,151.55 C198.45,151.55 198.45,134.38 198.45,134.38 C198.45,134.38 198.45,148.69 198.45,151.55 C198.45,151.55 198.45,151.55 198.45,151.55 " keyPoints="0;0.25;0.5;0.75;1;1" keySplines="0.333 0 0.667 1;0.333 0 0.667 1;0.333 0 0.667 1;0.333 0 0.667 1;0 0 0 0" calcMode="spline"/><animateTransform repeatCount="indefinite" dur="5.48s" begin="0s" xlink:href="#_R_G_L_1_G" fill="freeze" attributeName="transform" from="-138.445 380.447" to="-138.445 380.447" type="translate" additive="sum" keyTimes="0;1" values="-138.445 380.447;-138.445 380.447" keySplines="0 0 1 1" calcMode="spline"/><animateMotion repeatCount="indefinite" dur="5.48s" begin="0s" xlink:href="#_R_G_L_0_G" fill="freeze" keyTimes="0;0.2213942;0.4562044;0.6775985;0.9927007;1" path="M124.83 481.7 C124.83,486.35 124.83,509.61 124.83,509.61 C124.83,509.61 124.83,481.7 124.83,481.7 C124.83,481.7 124.83,509.61 124.83,509.61 C124.83,509.61 124.83,486.35 124.83,481.7 C124.83,481.7 124.83,481.7 124.83,481.7 " keyPoints="0;0.25;0.5;0.75;1;1" keySplines="0.333 0 0.667 1;0.333 0 0.667 1;0.333 0 0.667 1;0.333 0 0.667 1;0 0 0 0" calcMode="spline"/><animateTransform repeatCount="indefinite" dur="5.48s" begin="0s" xlink:href="#_R_G_L_0_G" fill="freeze" attributeName="transform" from="-64.825 50.299" to="-64.825 50.299" type="translate" additive="sum" keyTimes="0;1" values="-64.825 50.299;-64.825 50.299" keySplines="0 0 1 1" calcMode="spline"/><animate attributeType="XML" attributeName="opacity" dur="5s" from="0" to="1" xlink:href="#time_group"/></defs><g id="_R_G"><g id="_R_G_L_9_G" transform=" translate(60, 532) translate(0, 0)"><path id="_R_G_L_9_G_D_0_P_0" fill="#c0eb75" fill-opacity="1" fill-rule="nonzero" d=" M760.8 467.35 C760.8,467.35 -14.76,467.35 -14.76,467.35 C-14.76,444.22 -12.74,421.01 -8.53,397.97 C-1.15,357.3 12.93,317.15 34.09,279.01 C67.19,219.49 113.61,172.09 167.59,138.47 C176.26,133.03 185.15,127.98 194.21,123.29 C242.95,98 296.6,83.27 351.48,80.21 C351.97,80.18 352.45,80.12 352.94,80.11 C356.29,79.93 359.64,79.79 363.03,79.72 C369.73,79.53 376.44,79.53 383.13,79.69 C428.66,80.83 474.47,90.05 518.44,107.93 C532.95,113.8 547.3,120.63 561.32,128.45 C564.36,130.13 567.35,131.82 570.3,133.61 C572.1,134.64 573.87,135.74 575.6,136.82 C694.13,209.3 760.67,336.43 760.8,467.35z "/><path id="_R_G_L_9_G_D_1_P_0" fill="#9abc5e" fill-opacity="1" fill-rule="nonzero" d=" M23.34 409.73 C30.72,369.06 44.8,328.91 65.96,290.77 C99.06,231.26 145.48,183.85 199.46,150.23 C208.13,144.79 217.02,139.75 226.07,135.05 C274.82,109.76 328.47,95.03 383.35,91.97 C383.83,91.94 384.32,91.89 384.8,91.87 C388.15,91.69 391.51,91.55 394.9,91.48 C401.6,91.29 408.3,91.29 414.99,91.46 C449.8,92.32 484.78,97.94 518.96,108.51 C517.27,107.8 515.58,107.1 513.88,106.41 C469.92,88.54 424.11,79.31 378.57,78.18 C371.88,78.01 365.18,78.01 358.48,78.21 C355.09,78.27 351.73,78.41 348.38,78.59 C347.9,78.61 347.41,78.66 346.93,78.69 C292.05,81.75 238.4,96.48 189.66,121.77 C180.6,126.47 171.71,131.51 163.04,136.95 C109.06,170.57 62.64,217.98 29.54,277.5 C8.38,315.63 -5.7,355.78 -13.08,396.45 C-17.29,419.5 -19.32,442.71 -19.32,465.83 C-19.32,465.83 17.35,465.83 17.35,465.83 C17.98,447.11 19.93,428.37 23.34,409.73z "/><path id="_R_G_L_9_G_D_2_P_0" fill="#c0eb75" fill-opacity="1" fill-rule="nonzero" d=" M469.55 280.86 C510.46,282.89 539.36,268.95 534.1,249.71 C528.84,230.47 491.41,213.22 450.49,211.19 C409.58,209.16 380.67,223.11 385.93,242.35 C391.2,261.59 428.63,278.83 469.55,280.86z "/><path id="_R_G_L_9_G_D_3_P_0" fill="#9abc5e" fill-opacity="1" fill-rule="nonzero" d=" M716.5 467.34 C716.5,467.34 625.2,467.34 625.2,467.34 C639.83,441.6 660.41,424.23 679.57,424.18 C698.53,424.13 712.44,441.64 716.5,467.34z "/><path id="_R_G_L_9_G_D_4_P_0" fill="#9abc5e" fill-opacity="1" fill-rule="nonzero" d=" M195.92 202.74 C174.65,203.61 157.9,219.03 158.48,237.17 C159.07,255.32 176.78,269.32 198.04,268.45 C219.31,267.58 236.06,252.16 235.48,234.02 C234.89,215.87 217.18,201.87 195.92,202.74z "/><path id="_R_G_L_9_G_D_5_P_0" fill="#c0eb75" fill-opacity="1" fill-rule="nonzero" d=" M195.49 225.51 C180.85,231.91 173.48,246.57 179.03,258.24 C184.57,269.91 200.93,274.17 215.57,267.77 C230.2,261.36 237.57,246.71 232.03,235.04 C226.48,223.37 210.12,219.1 195.49,225.51z "/><path id="_R_G_L_9_G_D_6_P_0" fill="#221647" fill-opacity="1" fill-rule="nonzero" d=" M198.16 271.73 C181.03,274.08 161.51,265.18 154.71,248.47 C147.06,230.45 157.57,210.29 174.27,202.08 C197.76,189.46 233.72,199.25 239.37,227.53 C240.61,234.08 239.74,240.87 236.85,246.81 C235.94,248.77 234.68,250.52 233.52,252.27 C233.08,252.94 232.18,253.12 231.52,252.68 C230.86,252.25 230.68,251.38 231.08,250.73 C234.68,243.81 235.69,235.9 233.49,228.89 C226.87,206.82 197.42,200.28 178.74,210.63 C157.03,222.07 154.91,248.43 176.31,261.65 C182.63,265.62 190.21,267.73 198.01,268.15 C200.19,268.25 200.31,271.46 198.16,271.73 C198.16,271.73 198.16,271.73 198.16,271.73z "/><path id="_R_G_L_9_G_D_7_P_0" fill="#221647" fill-opacity="1" fill-rule="nonzero" d=" M246.78 212.28 C257.98,225.24 259.62,245.27 251.5,260.42 C243.68,275.93 228.01,286.39 211.41,290.21 C194.85,293.99 176.76,291.75 162.22,282.78 C147.76,274.31 137.1,258.08 138.01,241.11 C138.12,239.35 140.69,239.28 140.9,241.02 C141.91,248.66 144.83,255.79 149.27,261.74 C169.9,288.81 214.48,289.03 237.51,265 C244.98,257.13 249.72,246.61 249.7,235.67 C249.76,228.35 247.62,220.99 243.84,214.33 C242.76,212.46 245.39,210.62 246.78,212.28 C246.78,212.28 246.78,212.28 246.78,212.28z "/><path id="_R_G_L_9_G_D_8_P_0" fill="#221647" fill-opacity="1" fill-rule="nonzero" d=" M92.58 324.25 C143.15,328.98 168.85,383.36 155.8,429.26 C151.9,444.06 144.67,457.85 134.72,469.04 C134.1,469.73 133.04,469.8 132.34,469.18 C131.74,468.64 131.62,467.76 132,467.08 C139.17,454.49 144.29,441.04 146.77,427.24 C154.75,384.94 134.99,341.09 91.81,328.34 C89.47,327.67 90.1,324.04 92.58,324.25 C92.58,324.25 92.58,324.25 92.58,324.25z "/><path id="_R_G_L_9_G_D_9_P_0" fill="#9abc5e" fill-opacity="1" fill-rule="nonzero" d=" M122.23 426.64 C118.68,444.13 108.88,458.5 96.05,467.34 C96.05,467.34 36.32,467.34 36.32,467.34 C18.23,454.2 8.59,429.49 13.73,404.04 C20.49,370.56 50.28,348.48 80.25,354.71 C110.21,360.97 129,393.17 122.23,426.64z "/><path id="_R_G_L_9_G_D_10_P_0" fill="#c0eb75" fill-opacity="1" fill-rule="nonzero" d=" M115.72 438.59 C109.86,451.41 100.84,461.27 90.54,467.35 C90.54,467.35 58.05,467.35 58.05,467.35 C41.86,449.18 37.92,418.99 50.09,392.28 C57.95,375.08 70.93,362.7 85.4,356.8 C89.06,357.57 92.66,358.88 96.11,360.72 C120.63,373.71 129.41,408.56 115.72,438.59z "/><path id="_R_G_L_9_G_D_11_P_0" fill="#221647" fill-opacity="1" fill-rule="nonzero" d=" M27.13 468.3 C21.21,465.32 16.66,459.69 14.63,453.42 C14.09,451.73 16.31,450.45 17.51,451.71 C19.71,453.95 21.63,456.21 23.66,458.37 C25.46,460.36 28,462.94 29.68,465.03 C31.11,466.73 29.1,469.26 27.13,468.3 C27.13,468.3 27.13,468.3 27.13,468.3z "/><path id="_R_G_L_9_G_D_12_P_0" fill="#221647" fill-opacity="1" fill-rule="nonzero" d=" M14.2 392.97 C26.93,360.66 66.75,340.8 98.37,359.58 C125.32,375.58 131.14,411.34 117.7,438.2 C115.67,442.54 113.14,446.61 110.26,450.4 C104.46,457.92 97.19,464.27 88.91,468.56 C87.11,469.46 85.5,466.96 87.11,465.72 C107.44,450.29 119.08,422.98 112.98,397.95 C110.88,389.17 106.4,380.77 99.73,374.61 C82.8,358.23 55.98,360.49 37.73,373.7 C29.8,379.27 23.27,386.49 17.91,394.85 C16.61,396.99 13.23,395.32 14.2,392.97 C14.2,392.97 14.2,392.97 14.2,392.97z "/><path id="_R_G_L_9_G_D_13_P_0" fill="#221647" fill-opacity="1" fill-rule="nonzero" d=" M302.85 469.42 C293.66,460.74 288.32,448.85 285.03,436.87 C283.98,432.91 283.19,428.89 282.81,424.81 C282.74,423.98 283.34,423.26 284.16,423.18 C284.79,423.12 285.37,423.47 285.64,424.01 C285.64,424.01 290.9,434.66 290.9,434.66 C296.04,444.93 301.85,454.83 308.86,463.85 C311.9,467.85 306.58,472.75 302.85,469.42 C302.85,469.42 302.85,469.42 302.85,469.42z "/><path id="_R_G_L_9_G_D_14_P_0" fill="#221647" fill-opacity="1" fill-rule="nonzero" d=" M525.5 399.38 C530.69,423 526.84,449.48 511.95,468.96 C508.75,473.2 502.32,468.87 505.06,464.31 C508.07,459.46 510.88,454.59 513.21,449.57 C517.91,439.39 520.16,428.11 521.55,416.98 C522.2,411.29 522.56,405.52 522.63,399.69 C522.63,398.01 525.15,397.73 525.5,399.38 C525.5,399.38 525.5,399.38 525.5,399.38z "/><path id="_R_G_L_9_G_D_15_P_0" fill="#9abc5e" fill-opacity="1" fill-rule="nonzero" d=" M441.87 467.34 C441.87,467.34 364.67,467.34 364.67,467.34 C343.7,455.36 328.63,433.77 325.95,407.9 C321.51,365.2 352.52,327.01 395.22,322.56 C437.93,318.14 476.12,349.16 480.56,391.84 C483.82,423.41 467.73,452.51 441.87,467.34z "/><path id="_R_G_L_9_G_D_16_P_0" fill="#c0eb75" fill-opacity="1" fill-rule="nonzero" d=" M483.85 419.33 C480.44,439.69 467.93,456.72 450.71,467.34 C450.71,467.34 365.68,467.34 365.68,467.34 C350.25,457.73 339.11,443.12 334.55,426.4 C346.05,389.4 385.8,365.05 428.05,370.85 C451.91,374.16 471.84,386.35 484.52,403.29 C484.96,408.53 484.76,413.92 483.85,419.33z "/><path id="_R_G_L_9_G_D_17_P_0" fill="#221647" fill-opacity="1" fill-rule="nonzero" d=" M413.21 323.43 C446.62,326.24 477.68,353.11 481.92,387.17 C486.3,415.13 471.36,444.06 447.57,458.76 C412.87,481.17 363.57,474.28 337.65,441.68 C315.42,414.69 316.33,374.78 340.79,349.58 C342.23,348.11 344.48,350.11 343.22,351.7 C338.35,357.85 334.54,364.74 332.01,372.03 C327,386.47 327.13,402.61 332.83,416.76 C353.66,469.43 430.16,476.84 461.75,430.53 C479.47,404.92 475.24,370.34 453.01,348.62 C442.28,337.77 427.96,330.51 412.63,327.4 C410.16,326.9 410.69,323.22 413.21,323.43 C413.21,323.43 413.21,323.43 413.21,323.43z "/><path id="_R_G_L_9_G_D_18_P_0" fill="#c0eb75" fill-opacity="1" fill-rule="nonzero" d=" M520.72 254.57 C534.33,245.61 544.46,233.5 549.35,218.82 C558.2,192.22 547.41,164.83 524.24,142.06 C509.03,127.11 488.32,114.83 463.91,107.61 C402.29,89.38 340.46,110.32 325.79,154.38 C320.34,170.77 322.18,188.05 329.82,204.23 C342.72,231.54 372.54,254.14 411.23,265.58 "/><path id="_R_G_L_9_G_D_19_P_0" fill="#221647" fill-opacity="1" fill-rule="nonzero" d=" M547.37 218.16 C554.47,193.17 542.62,167.76 525.12,149.97 C489.75,113.98 433.98,98.6 384.99,110.15 C360.62,116.12 337.03,130.75 327.38,154.91 C327.04,155.77 326.06,156.19 325.19,155.84 C324.4,155.52 323.98,154.66 324.2,153.85 C325.97,147.32 328.83,141.02 332.65,135.34 C344.15,118.13 363,106.92 382.53,101.15 C445.07,82.38 531.43,113.7 552.79,178.87 C554.71,185.52 555.73,192.48 555.49,199.4 C555.28,206.32 553.82,213.15 551.32,219.48 C550.9,220.55 549.69,221.07 548.62,220.65 C547.62,220.25 547.1,219.17 547.37,218.16 C547.37,218.16 547.37,218.16 547.37,218.16z "/><path id="_R_G_L_9_G_D_20_P_0" fill="#9abc5e" fill-opacity="1" fill-rule="nonzero" d=" M433.57 251.38 C482.03,256.68 523.12,232.22 525.34,196.73 C527.56,161.24 490.08,128.18 441.62,122.88 C393.16,117.57 352.07,142.04 349.85,177.53 C347.63,213.01 385.11,246.08 433.57,251.38z "/><path id="_R_G_L_9_G_D_21_P_0" fill="#c0eb75" fill-opacity="1" fill-rule="nonzero" d=" M433.25 217.09 C474.54,218.51 507.29,198.45 506.41,172.27 C505.53,146.1 471.34,123.72 430.05,122.29 C388.77,120.87 356.01,140.93 356.9,167.11 C357.78,193.28 391.97,215.66 433.25,217.09z "/><path id="_R_G_L_9_G_D_22_P_0" fill="#221647" fill-opacity="1" fill-rule="nonzero" d=" M375.37 136.79 C355.12,151.18 348,175.74 359.48,198.03 C377.81,232.97 421.37,249.77 459.37,247.18 C489.33,245.48 522.68,226.48 519.76,192.93 C515.95,160.6 486.13,138.58 457.09,128.27 C455.11,127.58 456,124.56 458.04,125.05 C490.34,132.96 524.02,156.7 528.96,191.94 C532.82,220.69 511.81,244.24 485.8,252.93 C461.16,261.66 433.6,259.96 409.29,251.32 C377.45,239.98 345.16,212.38 346.17,175.9 C346.63,166.98 349.46,158.22 354.3,150.89 C359.08,143.61 365.68,137.71 373.08,133.31 C375.4,131.99 377.47,135.23 375.37,136.79 C375.37,136.79 375.37,136.79 375.37,136.79z "/><path id="_R_G_L_9_G_D_23_P_0" fill="#c0eb75" fill-opacity="1" fill-rule="nonzero" d=" M694.06 467.34 C694.06,467.34 625.82,467.34 625.82,467.34 C637.63,447.92 653.04,434.95 667.2,434.62 C681.76,434.25 691.47,447.32 694.06,467.34z "/><path id="_R_G_L_9_G_D_24_P_0" fill="#221647" fill-opacity="1" fill-rule="nonzero" d=" M710.66 448.98 C699.49,434.08 683.91,428.47 666.68,434.72 C650.03,440.81 636.71,453.88 624.81,467.24 C623.6,468.67 621.19,467.19 621.97,465.46 C633.12,438.94 663.83,411.88 694.19,424.45 C699.12,426.65 703.47,429.97 706.85,433.9 C710.21,437.87 712.76,442.32 714.33,447.02 C714.7,448.13 714.1,449.32 713,449.69 C712.12,449.98 711.19,449.66 710.66,448.98 C710.66,448.98 710.66,448.98 710.66,448.98z "/><path id="_R_G_L_9_G_D_25_P_0" fill="#221647" fill-opacity="1" fill-rule="nonzero" d=" M-14.77 472.66 C-17.7,472.66 -20.08,470.28 -20.08,467.35 C-20.1,443.8 -17.98,420.14 -13.78,397.03 C-6.1,354.83 8.45,314.26 29.45,276.44 C61.83,218.2 108.62,168.93 164.77,133.96 C173.48,128.51 182.56,123.32 191.75,118.56 C240.86,93.09 295.99,77.99 351.18,74.89 C351.18,74.89 351.85,74.85 351.85,74.85 C352.13,74.83 352.42,74.82 352.71,74.81 C356.3,74.61 359.66,74.48 362.9,74.4 C369.5,74.22 376.35,74.22 383.25,74.38 C430.5,75.57 476.65,85.2 520.42,103.01 C535.21,109 549.84,115.99 563.9,123.81 C566.84,125.45 569.95,127.21 573.02,129.04 C574.8,130.09 576.61,131.2 578.4,132.31 C636.43,167.79 684.42,217.99 717.16,277.46 C749.06,335.39 765.98,400.93 766.09,467.01 C766.09,468.42 765.54,469.78 764.54,470.77 C763.54,471.77 762.19,472.33 760.78,472.33 C760.78,472.33 -14.77,472.66 -14.77,472.66 C-14.77,472.66 -14.77,472.66 -14.77,472.66z  M373.38 84.88 C369.93,84.88 366.52,84.93 363.17,85.02 C360.02,85.09 356.77,85.22 353.21,85.42 C353.21,85.42 352.51,85.46 352.51,85.46 C352.24,85.47 351.97,85.49 351.71,85.5 C298.07,88.51 244.43,103.21 196.64,127.99 C187.7,132.63 178.87,137.66 170.4,142.97 C115.76,177 70.24,224.93 38.74,281.6 C18.3,318.4 4.15,357.87 -3.32,398.93 C-7.1,419.68 -9.15,440.88 -9.43,462.03 C-9.43,462.03 755.42,461.71 755.42,461.71 C753.42,329.68 685.45,210.22 572.83,141.35 C571.09,140.27 569.36,139.21 567.61,138.19 C564.62,136.39 561.58,134.68 558.73,133.08 C545.06,125.49 530.83,118.68 516.42,112.86 C473.84,95.53 428.94,86.16 382.99,85 C379.77,84.92 376.56,84.88 373.38,84.88z "/></g><g id="_R_G_L_8_G" transform=" translate(60, 532) translate(0, 0)"><path id="_R_G_L_8_G_D_0_P_0" fill="#ffffff" fill-opacity="1" fill-rule="nonzero" d=" M551.64 4.83 C550.83,22.1 548.83,38.3 545.51,51.37 C542.88,61.69 534.59,69.51 524.12,71.46 C512.44,73.65 494.5,75.04 470.67,71.24 C470.67,71.24 453.52,-140.23 453.52,-140.23 C453.52,-140.23 472.26,-141.9 492.28,-139.24 C506.16,-137.41 520.64,-133.49 529.96,-125.53 C545.47,-112.25 554.17,-48.56 551.64,4.83z "/><path id="_R_G_L_8_G_D_1_P_0" fill="#221647" fill-opacity="1" fill-rule="nonzero" d=" M499.38 78.45 C490.86,78.45 481.01,77.8 469.91,76.03 C467.7,75.68 466.02,73.86 465.84,71.64 C465.84,71.64 448.69,-139.84 448.69,-139.84 C448.47,-142.49 450.44,-144.82 453.09,-145.06 C453.88,-145.13 472.6,-146.75 492.92,-144.05 C510.85,-141.67 524.37,-136.68 533.11,-129.21 C550.76,-114.1 558.98,-47.75 556.48,5.06 C556.48,5.06 556.48,5.06 556.48,5.06 C555.63,23.36 553.46,39.79 550.21,52.56 C547.12,64.66 537.23,73.94 525.01,76.23 C518.72,77.41 510.11,78.45 499.38,78.45z  M475.19 67.02 C497.02,70.07 513.26,68.57 523.23,66.7 C531.76,65.11 538.66,58.62 540.82,50.17 C543.9,38.02 545.97,22.26 546.8,4.6 C546.8,4.6 546.8,4.6 546.8,4.6 C549.4,-50.39 539.87,-110.66 526.81,-121.85 C519.52,-128.08 507.69,-132.31 491.65,-134.44 C478.34,-136.21 465.46,-136 458.75,-135.69 C458.75,-135.69 475.19,67.02 475.19,67.02z "/><path id="_R_G_L_8_G_D_2_P_0" fill="#b0a8c8" fill-opacity="1" fill-rule="nonzero" d=" M551.64 4.83 C550.83,22.1 548.83,38.3 545.51,51.37 C542.88,61.69 534.59,69.51 524.12,71.46 C512.44,73.65 494.5,75.04 470.67,71.24 C470.67,71.24 453.52,-140.23 453.52,-140.23 C453.52,-140.23 472.26,-141.9 492.28,-139.24 C473.53,-114.88 418.61,-28.57 551.64,4.83z "/><path id="_R_G_L_8_G_D_3_P_0" fill="#221647" fill-opacity="1" fill-rule="nonzero" d=" M499.38 78.45 C490.86,78.45 481.01,77.8 469.91,76.03 C467.7,75.68 466.02,73.86 465.84,71.64 C465.84,71.64 448.69,-139.84 448.69,-139.84 C448.47,-142.49 450.44,-144.82 453.09,-145.06 C453.88,-145.13 472.6,-146.75 492.92,-144.05 C510.85,-141.67 524.37,-136.68 533.11,-129.21 C550.76,-114.1 558.98,-47.75 556.48,5.06 C556.48,5.06 556.48,5.06 556.48,5.06 C555.63,23.36 553.46,39.79 550.21,52.56 C547.12,64.66 537.23,73.94 525.01,76.23 C518.72,77.41 510.11,78.45 499.38,78.45z  M475.19 67.02 C497.02,70.07 513.26,68.57 523.23,66.7 C531.76,65.11 538.66,58.62 540.82,50.17 C543.9,38.02 545.97,22.26 546.8,4.6 C546.8,4.6 546.8,4.6 546.8,4.6 C549.4,-50.39 539.87,-110.66 526.81,-121.85 C519.52,-128.08 507.69,-132.31 491.65,-134.44 C478.34,-136.21 465.46,-136 458.75,-135.69 C458.75,-135.69 475.19,67.02 475.19,67.02z "/><path id="_R_G_L_8_G_D_4_P_0" fill="#221647" fill-opacity="1" fill-rule="nonzero" d=" M517.46 32.42 C510.71,32.42 504.67,27.66 503.31,20.82 C502.2,15.2 501.48,9.35 501.19,3.46 C501.06,0.79 503.12,-1.49 505.79,-1.62 C508.45,-1.75 510.74,0.3 510.87,2.98 C511.14,8.4 511.8,13.77 512.82,18.94 C513.32,21.48 515.81,23.14 518.37,22.63 C518.37,22.63 533.34,19.72 533.34,19.72 C535.14,19.37 536.56,18.03 537.04,16.23 C542.94,-5.95 540,-33.06 538.47,-43.69 C538.38,-44.32 537.83,-44.79 537.19,-44.79 C537.18,-44.79 537.16,-44.79 537.14,-44.79 C518.64,-44.07 515.64,-43.39 515.36,-43.31 C512.78,-42.62 510.11,-44.14 509.41,-46.72 C508.71,-49.3 510.23,-51.96 512.8,-52.66 C513.74,-52.92 516.58,-53.69 536.77,-54.48 C542.35,-54.72 547.25,-50.65 548.06,-45.07 C549.68,-33.86 552.77,-5.19 546.41,18.72 C544.99,24.06 540.58,28.19 535.19,29.24 C535.19,29.24 520.22,32.15 520.22,32.15 C519.29,32.33 518.37,32.42 517.46,32.42z "/><path id="_R_G_L_8_G_D_5_P_0" fill="#221647" fill-opacity="1" fill-rule="nonzero" d=" M518.69 -122.18 C513.22,-116.41 505.57,-112.93 497.62,-112.66 C503.07,-118.46 510.74,-121.9 518.69,-122.18 C518.69,-122.18 518.69,-122.18 518.69,-122.18z "/></g><g id="_R_G_L_7_G" transform=" translate(60, 532) translate(0, 0)"><path id="_R_G_L_7_G_D_0_P_0" fill="#ffffff" fill-opacity="1" fill-rule="nonzero" d=" M536.07 -7.5 C533.5,2.93 523.42,23.35 483.9,11.8 C483.9,11.8 505.95,65.45 472.14,121.31 C446.77,163.22 432.72,212.02 427.28,233.8 C424.4,245.29 416.99,255.29 406.49,260.81 C398.57,264.99 388.79,266.85 378.8,260.71 C355.73,246.54 355.52,240.84 355.52,240.62 C355.52,240.62 342.93,241.34 332.63,237.43 C332.63,237.43 332.61,237.41 332.61,237.41 C326.16,234.97 320.6,230.71 319.62,223.31 C319.56,222.96 319.53,222.61 319.5,222.24 C318.88,213.73 321.35,206.56 325.7,201.09 C331.69,193.47 341.27,189.17 351.11,189.17 C351.11,189.17 362.75,140.17 371.57,112.98 C371.57,112.98 341.37,111.6 341.37,111.6 C341.37,111.6 341.36,111.58 341.36,111.58 C341.36,111.58 339.6,111.51 339.6,111.51 C339.6,111.51 305.79,185.74 292.92,226.17 C292.92,226.17 291.33,238.91 249.68,235.47 C215.51,232.66 191.41,228.86 183.17,219.07 C183.15,219.02 183.13,218.99 183.1,218.96 C181.34,216.85 180.32,214.45 180.1,211.72 C178.88,196.28 190.39,175.94 221.75,183.29 C226.54,146.05 233.58,112.37 248.94,91.91 C248.94,91.91 243.15,-39.31 243.15,-39.31 C243.15,-39.31 255.16,-96.5 299.04,-110.83 C342.9,-125.16 454.99,-121.85 454.99,-121.85 C454.99,-121.85 489.9,-115.99 510.85,-80.89 C520.33,-65.01 526.56,-49.6 530.56,-37.52 C530.56,-37.52 530.56,-37.48 530.56,-37.48 C533.59,-28.3 535.34,-21.06 536.21,-16.91 C536.87,-13.8 536.84,-10.59 536.07,-7.5z "/><path id="_R_G_L_7_G_D_1_P_0" fill="#221647" fill-opacity="1" fill-rule="nonzero" d=" M392.25 269.5 C386.7,269.5 381.32,267.95 376.26,264.84 C363.88,257.23 355.81,250.67 352.45,245.51 C347.72,245.47 338.8,244.95 330.91,241.96 C330.81,241.92 330.72,241.88 330.62,241.84 C318.98,237.34 315.6,229.7 314.82,224.03 C314.75,223.57 314.71,223.11 314.67,222.63 C314,213.35 316.5,204.87 321.91,198.07 C327.91,190.44 337.18,185.53 347.24,184.51 C349.85,173.73 358.01,140.57 365.06,117.53 C365.06,117.53 342.66,116.51 342.66,116.51 C336.26,130.72 308.88,192.14 297.65,227.31 C296.75,231.88 290.44,243.7 249.28,240.3 C213.08,237.33 188.77,233.26 179.46,222.19 C179.39,222.1 179.32,222.01 179.25,221.92 C176.9,219.04 175.56,215.74 175.27,212.11 C174.44,201.54 178.51,191.31 186.17,184.73 C191.74,179.94 201.59,175.09 217.62,177.55 C221.87,146.08 228.54,112.12 244.02,90.43 C244.02,90.43 238.31,-39.1 238.31,-39.1 C238.29,-39.51 238.32,-39.91 238.41,-40.31 C238.92,-42.76 251.52,-100.41 297.53,-115.44 C341.69,-129.86 450.52,-126.83 455.13,-126.7 C455.35,-126.69 455.57,-126.67 455.79,-126.63 C457.31,-126.38 493.17,-119.98 515.01,-83.37 C523.17,-69.7 529.95,-54.79 535.16,-39.04 C535.2,-38.93 535.23,-38.81 535.26,-38.69 C538.46,-28.97 540.2,-21.51 540.95,-17.91 C541.77,-14.02 541.72,-10.13 540.78,-6.34 C539.12,0.37 535.08,9.55 525.21,15.23 C516.5,20.25 505.09,21.37 491.22,18.6 C496.15,36.44 503.28,79.22 476.29,123.82 C450.87,165.81 436.84,215.54 431.98,234.97 C428.7,248.08 420.23,259.06 408.75,265.1 C403.19,268.03 397.64,269.5 392.25,269.5z  M360.29 239.78 C360.71,240.64 363.79,245.8 381.34,256.58 C388.42,260.93 395.91,260.91 404.23,256.52 C413.28,251.76 419.96,243.05 422.58,232.62 C428.74,207.95 442.84,160.37 468,118.8 C500.07,65.82 479.63,14.15 479.42,13.63 C478.72,11.91 479.06,9.94 480.31,8.55 C481.55,7.17 483.48,6.62 485.26,7.15 C500.47,11.59 512.29,11.49 520.38,6.83 C527.29,2.85 530.17,-3.79 531.37,-8.66 C531.37,-8.66 531.37,-8.67 531.37,-8.67 C531.95,-11.02 531.98,-13.46 531.46,-15.9 C530.74,-19.36 529.07,-26.54 525.96,-35.96 C525.92,-36.07 525.89,-36.18 525.86,-36.3 C520.88,-51.26 514.43,-65.43 506.69,-78.4 C488.2,-109.39 457.77,-116.35 454.47,-117.02 C447.26,-117.21 341.84,-119.72 300.54,-106.22 C262.13,-93.67 249.4,-44.68 248.02,-38.87 C248.02,-38.87 253.78,91.7 253.78,91.7 C253.83,92.82 253.49,93.93 252.82,94.82 C237.08,115.79 230.71,151.62 226.55,183.91 C226.38,185.27 225.63,186.49 224.51,187.27 C223.38,188.05 221.97,188.32 220.64,188.01 C208.61,185.19 198.87,186.6 192.48,192.09 C186.22,197.47 184.48,205.56 184.93,211.33 C185.07,213.04 185.67,214.48 186.83,215.86 C186.83,215.86 186.82,215.86 186.82,215.86 C186.88,215.93 186.94,216 186.99,216.07 C194.68,224.95 221.84,228.32 250.07,230.64 C282.57,233.33 287.81,225.74 288.2,225.08 C288.23,224.95 288.26,224.82 288.3,224.7 C301.11,184.46 334.84,110.24 335.18,109.5 C336,107.7 337.83,106.59 339.8,106.66 C339.8,106.66 341.56,106.74 341.56,106.74 C341.69,106.74 341.82,106.75 341.95,106.77 C341.95,106.77 371.79,108.14 371.79,108.14 C373.3,108.2 374.69,108.97 375.55,110.22 C376.41,111.46 376.64,113.03 376.18,114.47 C367.52,141.17 355.94,189.8 355.82,190.29 C355.3,192.47 353.35,194.01 351.1,194.01 C342.54,194.01 334.47,197.78 329.52,204.08 C325.63,208.97 323.84,215.12 324.33,221.89 C324.35,222.08 324.36,222.3 324.4,222.51 C324.41,222.57 324.42,222.62 324.42,222.68 C324.65,224.36 325.33,229.48 334.33,232.88 C334.42,232.91 334.5,232.95 334.59,232.99 C343.73,236.37 355.13,235.79 355.24,235.78 C356.6,235.72 357.88,236.18 358.84,237.1 C359.61,237.82 360.11,238.76 360.29,239.78z  M360.36 240.6 C360.36,240.61 360.36,240.61 360.36,240.62 C360.36,240.61 360.36,240.61 360.36,240.6z  M360.36 240.59 C360.36,240.59 360.36,240.6 360.36,240.6 C360.36,240.6 360.36,240.59 360.36,240.59z  M288.12 225.55 C288.12,225.56 288.11,225.56 288.11,225.57 C288.11,225.56 288.12,225.56 288.12,225.55z  M288.12 225.54 C288.12,225.54 288.12,225.55 288.12,225.55 C288.12,225.55 288.12,225.54 288.12,225.54z  M288.12 225.53 C288.12,225.53 288.12,225.53 288.12,225.54 C288.12,225.53 288.12,225.53 288.12,225.53z  M288.12 225.52 C288.12,225.52 288.12,225.52 288.12,225.52 C288.12,225.52 288.12,225.52 288.12,225.52z "/><path id="_R_G_L_7_G_D_2_P_0" fill="#b0a8c8" fill-opacity="1" fill-rule="nonzero" d=" M370.06 -77.02 C370.06,-77.02 457.56,-56.07 487.33,-109.73 C487.33,-109.73 461.42,-120.18 461.42,-120.18 "/><path id="_R_G_L_7_G_D_3_P_0" fill="#b0a8c8" fill-opacity="1" fill-rule="nonzero" d=" M482.77 16.51 C482.77,16.51 449.54,8.59 449.54,8.59 C446.06,12.06 438.68,18.05 429.14,18.05 C427.33,18.05 425.45,17.84 423.5,17.35 C413.57,14.87 404.1,10.51 397.5,5.38 C391.63,0.82 388.35,-6.22 388.43,-13.67 C386.13,-11.69 383.87,-9.82 382.14,-8.48 C382.14,-8.48 381.87,3.83 381.87,3.83 C381.87,3.83 398.13,20.1 398.13,20.1 C398.13,20.1 404.01,13.56 404.01,13.56 C413.17,31.22 442.6,27.94 442.6,27.94 C442.6,27.94 444.55,56.5 444.55,56.5 C444.55,56.5 374,99.14 374,99.14 C374,99.14 435.73,80.78 435.73,80.78 C435.73,80.78 445.05,86.4 438.59,104.11 C432.13,121.84 386.74,200.57 386.74,200.57 C386.74,200.57 390.03,202.25 386.74,223.22 C383.45,244.19 331.98,237.78 331.98,237.78 C331.98,237.78 332,237.79 332,237.79 C342.3,241.7 354.89,240.98 354.89,240.98 C354.89,241.2 355.11,246.91 378.17,261.08 C388.17,267.22 397.94,265.36 405.86,261.18 C416.36,255.65 423.77,245.66 426.65,234.16 C432.09,212.39 446.14,163.59 471.51,121.68 C499.59,75.29 489.15,30.43 484.8,16.55 C484.15,16.67 483.46,16.67 482.77,16.51z "/><path id="_R_G_L_7_G_D_4_P_0" fill="#b0a8c8" fill-opacity="1" fill-rule="nonzero" d=" M535.58 -16.55 C534.71,-20.69 532.96,-27.94 529.93,-37.11 C531.34,-21.86 519.99,-15.45 505.05,-13.44 C504.02,-3.44 500.2,6.41 493.84,14.64 C524.65,19.89 533.12,2.3 535.44,-7.14 C536.21,-10.22 536.24,-13.43 535.58,-16.55z "/><path id="_R_G_L_7_G_D_5_P_0" fill="#b0a8c8" fill-opacity="1" fill-rule="nonzero" d=" M341.36 111.58 C341.36,111.58 339.6,111.51 339.6,111.51 C339.6,111.51 305.79,185.74 292.92,226.17 C292.92,226.17 291.33,238.91 249.68,235.47 C215.51,232.66 191.41,228.86 183.17,219.07 C183.12,218.98 183.09,218.93 183.09,218.93 C183.09,218.93 194.8,199.88 231.55,211.8 C268.3,223.71 274.92,183.29 274.92,183.29 C274.92,183.29 313.14,118.27 292.19,94.56 C292.19,94.56 341.36,111.58 341.36,111.58z "/><path id="_R_G_L_7_G_D_6_P_0" fill="#221647" fill-opacity="1" fill-rule="nonzero" d=" M392.25 269.5 C386.7,269.5 381.32,267.95 376.26,264.84 C363.88,257.23 355.81,250.67 352.45,245.51 C347.72,245.47 338.8,244.95 330.91,241.96 C330.81,241.92 330.72,241.88 330.62,241.84 C318.98,237.34 315.6,229.7 314.82,224.03 C314.75,223.57 314.71,223.11 314.67,222.63 C314,213.35 316.5,204.87 321.91,198.07 C327.91,190.44 337.18,185.53 347.24,184.51 C349.85,173.73 358.01,140.57 365.06,117.53 C365.06,117.53 342.66,116.51 342.66,116.51 C336.26,130.72 308.88,192.14 297.65,227.31 C296.75,231.88 290.44,243.7 249.28,240.3 C213.08,237.33 188.77,233.26 179.46,222.19 C179.39,222.1 179.32,222.01 179.25,221.92 C176.9,219.04 175.56,215.74 175.27,212.11 C174.44,201.54 178.51,191.31 186.17,184.73 C191.74,179.94 201.59,175.09 217.62,177.55 C221.87,146.08 228.54,112.12 244.02,90.43 C244.02,90.43 238.31,-39.1 238.31,-39.1 C238.29,-39.51 238.32,-39.91 238.41,-40.31 C238.92,-42.76 251.52,-100.41 297.53,-115.44 C341.69,-129.86 450.52,-126.83 455.13,-126.7 C455.35,-126.69 455.57,-126.67 455.79,-126.63 C457.31,-126.38 493.17,-119.98 515.01,-83.37 C523.17,-69.7 529.95,-54.79 535.16,-39.04 C535.2,-38.93 535.23,-38.81 535.26,-38.69 C538.46,-28.97 540.2,-21.51 540.95,-17.91 C541.77,-14.02 541.72,-10.13 540.78,-6.34 C539.12,0.37 535.08,9.55 525.21,15.23 C516.5,20.25 505.09,21.37 491.22,18.6 C496.15,36.44 503.28,79.22 476.29,123.82 C450.87,165.81 436.84,215.54 431.98,234.97 C428.7,248.08 420.23,259.06 408.75,265.1 C403.19,268.03 397.64,269.5 392.25,269.5z  M360.29 239.78 C360.71,240.64 363.79,245.8 381.34,256.58 C388.42,260.93 395.91,260.91 404.23,256.52 C413.28,251.76 419.96,243.05 422.58,232.62 C428.74,207.95 442.84,160.37 468,118.8 C500.07,65.82 479.63,14.15 479.42,13.63 C478.72,11.91 479.06,9.94 480.31,8.55 C481.55,7.17 483.48,6.62 485.26,7.15 C500.47,11.59 512.29,11.49 520.38,6.83 C527.29,2.85 530.17,-3.79 531.37,-8.66 C531.37,-8.66 531.37,-8.67 531.37,-8.67 C531.95,-11.02 531.98,-13.46 531.46,-15.9 C530.74,-19.36 529.07,-26.54 525.96,-35.96 C525.92,-36.07 525.89,-36.18 525.86,-36.3 C520.88,-51.26 514.43,-65.43 506.69,-78.4 C488.2,-109.39 457.77,-116.35 454.47,-117.02 C447.26,-117.21 341.84,-119.72 300.54,-106.22 C262.13,-93.67 249.4,-44.68 248.02,-38.87 C248.02,-38.87 253.78,91.7 253.78,91.7 C253.83,92.82 253.49,93.93 252.82,94.82 C237.08,115.79 230.71,151.62 226.55,183.91 C226.38,185.27 225.63,186.49 224.51,187.27 C223.38,188.05 221.97,188.32 220.64,188.01 C208.61,185.19 198.87,186.6 192.48,192.09 C186.22,197.47 184.48,205.56 184.93,211.33 C185.07,213.04 185.67,214.48 186.83,215.86 C186.83,215.86 186.82,215.86 186.82,215.86 C186.88,215.93 186.94,216 186.99,216.07 C194.68,224.95 221.84,228.32 250.07,230.64 C282.57,233.33 287.81,225.74 288.2,225.08 C288.23,224.95 288.26,224.82 288.3,224.7 C301.11,184.46 334.84,110.24 335.18,109.5 C336,107.7 337.83,106.59 339.8,106.66 C339.8,106.66 341.56,106.74 341.56,106.74 C341.69,106.74 341.82,106.75 341.95,106.77 C341.95,106.77 371.79,108.14 371.79,108.14 C373.3,108.2 374.69,108.97 375.55,110.22 C376.41,111.46 376.64,113.03 376.18,114.47 C367.52,141.17 355.94,189.8 355.82,190.29 C355.3,192.47 353.35,194.01 351.1,194.01 C342.54,194.01 334.47,197.78 329.52,204.08 C325.63,208.97 323.84,215.12 324.33,221.89 C324.35,222.08 324.36,222.3 324.4,222.51 C324.41,222.57 324.42,222.62 324.42,222.68 C324.65,224.36 325.33,229.48 334.33,232.88 C334.42,232.91 334.5,232.95 334.59,232.99 C343.73,236.37 355.13,235.79 355.24,235.78 C356.6,235.72 357.88,236.18 358.84,237.1 C359.61,237.82 360.11,238.76 360.29,239.78z  M360.36 240.6 C360.36,240.61 360.36,240.61 360.36,240.62 C360.36,240.61 360.36,240.61 360.36,240.6z  M360.36 240.59 C360.36,240.59 360.36,240.6 360.36,240.6 C360.36,240.6 360.36,240.59 360.36,240.59z  M288.12 225.55 C288.12,225.56 288.11,225.56 288.11,225.57 C288.11,225.56 288.12,225.56 288.12,225.55z  M288.12 225.54 C288.12,225.54 288.12,225.55 288.12,225.55 C288.12,225.55 288.12,225.54 288.12,225.54z  M288.12 225.53 C288.12,225.53 288.12,225.53 288.12,225.54 C288.12,225.53 288.12,225.53 288.12,225.53z  M288.12 225.52 C288.12,225.52 288.12,225.52 288.12,225.52 C288.12,225.52 288.12,225.52 288.12,225.52z "/><path id="_R_G_L_7_G_D_7_P_0" fill="#221647" fill-opacity="1" fill-rule="nonzero" d=" M351.56 184.35 C368.46,188.07 384.3,195.73 398.03,206.14 C394.23,204.3 390.43,202.56 386.5,201.16 C375.07,196.97 362.8,194.28 350.67,194 C343.6,193.74 344.54,183.31 351.56,184.35 C351.56,184.35 351.56,184.35 351.56,184.35z "/><path id="_R_G_L_7_G_D_8_P_0" fill="#221647" fill-opacity="1" fill-rule="nonzero" d=" M353.22 236.36 C360.37,234.46 367.36,234.81 374.57,234.8 C370.02,237.05 365.52,239.39 361.32,242.14 C359.99,243.03 358.64,243.98 357.82,244.89 C355.92,246.97 352.69,247.13 350.61,245.23 C347.42,242.35 349.09,237.13 353.22,236.36 C353.22,236.36 353.22,236.36 353.22,236.36z "/><path id="_R_G_L_7_G_D_9_P_0" fill="#221647" fill-opacity="1" fill-rule="nonzero" d=" M223.1 178.64 C232.75,183.33 242.61,187.67 251.4,193.83 C248.9,192.92 246.34,192.34 243.76,191.79 C236.05,190.18 228.18,188.99 220.4,187.95 C217.71,187.6 215.82,185.14 216.17,182.45 C216.53,179.21 220.18,177.22 223.1,178.64 C223.1,178.64 223.1,178.64 223.1,178.64z "/><path id="_R_G_L_7_G_D_10_P_0" fill="#221647" fill-opacity="1" fill-rule="nonzero" d=" M314.36 170.5 C312.08,170.5 310.06,168.9 309.6,166.58 C306.54,150.85 297.29,137.99 283.58,130.38 C269.35,122.49 252.01,121.15 237.2,126.81 C234.7,127.77 231.9,126.52 230.94,124.02 C229.99,121.52 231.24,118.72 233.74,117.76 C251.19,111.09 271.58,112.64 288.28,121.91 C304.54,130.93 315.49,146.13 319.12,164.72 C319.63,167.35 317.92,169.9 315.29,170.41 C314.98,170.47 314.66,170.5 314.36,170.5z "/><path id="_R_G_L_7_G_D_11_P_0" fill="#221647" fill-opacity="1" fill-rule="nonzero" d=" M445.19 174.17 C443.57,174.17 441.99,173.36 441.07,171.88 C431.76,156.89 406.01,123.83 368.25,140.44 C365.8,141.52 362.94,140.41 361.86,137.96 C360.79,135.51 361.9,132.65 364.35,131.57 C395.37,117.92 427.12,131.07 449.31,166.77 C450.72,169.04 450.02,172.03 447.75,173.44 C446.95,173.94 446.07,174.17 445.19,174.17z "/><path id="_R_G_L_7_G_D_12_P_0" fill="#221647" fill-opacity="1" fill-rule="nonzero" d=" M439.21 -53.02 C439.21,-53.02 434.01,-75.18 434.01,-75.18 C434.01,-75.18 447.25,-56.66 447.25,-56.66 C447.25,-56.66 439.21,-53.02 439.21,-53.02 C439.21,-53.02 439.21,-53.02 439.21,-53.02z "/><path id="_R_G_L_7_G_D_13_P_0" fill="#221647" fill-opacity="1" fill-rule="nonzero" d=" M287.78 -42.03 C287.78,-42.03 292.19,-62.69 292.19,-62.69 C292.19,-62.69 296.6,-42.03 296.6,-42.03 C296.6,-42.03 287.78,-42.03 287.78,-42.03 C287.78,-42.03 287.78,-42.03 287.78,-42.03z "/><path id="_R_G_L_7_G_D_14_P_0" fill="#000070" fill-opacity="1" fill-rule="nonzero" d=" M325.7 201.09 C323.97,208.29 321.94,215.92 319.62,223.31 C319.56,222.96 319.53,222.61 319.5,222.24 C318.88,213.73 321.35,206.56 325.7,201.09z "/></g><g id="_R_G_L_6_G" transform=" translate(60, 532) translate(0, 0)"><path id="_R_G_L_6_G_D_0_P_0" fill="#221647" fill-opacity="1" fill-rule="nonzero" d=" M326.36 -29.54 C323.77,-29.54 321.62,-31.6 321.52,-34.21 C321.43,-36.89 323.51,-39.13 326.19,-39.23 C326.19,-39.23 402.45,-40.99 402.45,-40.99 C405.15,-41.09 407.38,-39 407.47,-36.32 C407.57,-33.65 405.48,-31.4 402.81,-31.3 C402.81,-31.3 326.54,-29.54 326.54,-29.54 C326.48,-29.54 326.42,-29.54 326.36,-29.54z "/><path id="_R_G_L_6_G_D_1_P_0" fill="#221647" fill-opacity="1" fill-rule="nonzero" d=" M345.55 27.79 C343.19,27.79 341.24,25.93 341.15,23.56 C341.05,21.12 342.94,19.07 345.38,18.97 C345.38,18.97 393.48,17.06 393.48,17.06 C396.22,16.95 398.36,14.72 398.36,11.97 C398.36,11.97 398.36,-32.78 398.36,-32.78 C398.36,-35.22 400.34,-37.19 402.77,-37.19 C405.21,-37.19 407.18,-35.22 407.18,-32.78 C407.18,-32.78 407.18,11.97 407.18,11.97 C407.18,19.47 401.32,25.57 393.83,25.87 C393.83,25.87 345.73,27.79 345.73,27.79 C345.67,27.79 345.61,27.79 345.55,27.79z "/><path id="_R_G_L_6_G_D_2_P_0" fill="#221647" fill-opacity="1" fill-rule="nonzero" d=" M342.78 14.73 C340.43,14.73 338.47,12.88 338.38,10.51 C338.27,8.07 340.16,6.02 342.6,5.92 C342.6,5.92 374.83,4.56 374.83,4.56 C375.88,4.51 376.85,4.06 377.56,3.28 C378.27,2.49 378.63,1.48 378.57,0.43 C378.57,0.43 377.72,-34.44 377.72,-34.44 C377.58,-36.87 379.44,-38.95 381.88,-39.09 C384.31,-39.21 386.39,-37.37 386.53,-34.94 C386.53,-34.94 387.37,-0.07 387.37,-0.07 C387.57,3.36 386.4,6.65 384.1,9.2 C381.79,11.74 378.63,13.23 375.2,13.37 C375.2,13.37 342.97,14.73 342.97,14.73 C342.9,14.73 342.84,14.73 342.78,14.73z "/><path id="_R_G_L_6_G_D_3_P_0" fill="#221647" fill-opacity="1" fill-rule="nonzero" d=" M385.2 3.33 C385.2,3.33 398.76,16.33 398.76,16.33 C398.76,16.33 380.77,10.95 380.77,10.95 C378.36,10.23 377,7.7 377.72,5.3 C378.59,2.09 382.88,1 385.2,3.33 C385.2,3.33 385.2,3.33 385.2,3.33z "/></g><g id="_R_G_L_5_G" transform=" translate(60, 532) translate(0, 0)"><path id="_R_G_L_5_G_D_0_P_0" fill="#b1b1ba" fill-opacity="1" fill-rule="nonzero" d=" M443.23 58.1 C443.23,58.1 366.2,97.98 366.2,97.98 C362.75,99.78 358.85,100.54 354.97,100.19 C354.97,100.19 229.68,88.94 229.68,88.94 C229.68,88.94 219.82,88.06 219.82,88.06 C212.57,87.41 206.28,82.8 203.49,76.08 C203.49,76.08 163.43,-20.23 163.43,-20.23 C162.14,-23.32 162.58,-26.85 164.56,-29.52 C164.56,-29.52 170.96,-38.18 170.96,-38.18 C172.78,-40.65 175.68,-42.08 178.74,-42.03 C178.74,-42.03 312.78,-40.05 312.78,-40.05 C318.96,-39.96 324.42,-36.03 326.5,-30.21 C326.5,-30.21 350.62,37.64 350.62,37.64 C350.62,37.64 437.2,43.59 437.2,43.59 C437.2,43.59 441.39,43.89 441.39,43.89 C441.39,43.89 443.23,58.1 443.23,58.1z "/><path id="_R_G_L_5_G_D_1_P_0" fill="#9a9a9e" fill-opacity="1" fill-rule="nonzero" d=" M443.23 57.74 C443.23,57.74 366.2,97.62 366.2,97.62 C362.75,99.41 358.85,100.18 354.97,99.82 C354.97,99.82 229.68,88.58 229.68,88.58 C229.68,88.58 229.6,88.43 229.6,88.43 C235.48,86.64 325.63,75.88 312.4,-18.2 C312.4,-18.2 325.63,-24.63 325.63,-24.63 C325.63,-24.63 352.65,43.38 352.65,43.38 C352.65,43.38 362.16,78.51 399.13,61.71 C415.68,54.19 428.29,47.89 437.2,43.23 C437.2,43.23 441.39,43.52 441.39,43.52 C441.39,43.52 443.23,57.74 443.23,57.74z "/><path id="_R_G_L_5_G_D_2_P_0" fill="#ffffff" fill-opacity="1" fill-rule="nonzero" d=" M178.1 -27.55 C176.12,-24.88 175.69,-21.35 176.97,-18.26 C176.97,-18.26 217.03,78.05 217.03,78.05 C219.1,83.05 223.13,86.89 228.04,88.8 C228.04,88.8 219.82,88.06 219.82,88.06 C212.57,87.41 206.28,82.8 203.49,76.08 C203.49,76.08 163.43,-20.23 163.43,-20.23 C162.14,-23.32 162.58,-26.85 164.56,-29.52 C164.56,-29.52 170.96,-38.18 170.96,-38.18 C172.78,-40.65 175.68,-42.08 178.74,-42.03 C178.74,-42.03 312.78,-40.05 312.78,-40.05 C315.28,-40.02 317.66,-39.36 319.75,-38.18 C319.75,-38.18 192.27,-40.06 192.27,-40.06 C189.22,-40.11 186.32,-38.67 184.5,-36.21 C184.5,-36.21 178.1,-27.55 178.1,-27.55z "/><path id="_R_G_L_5_G_D_3_P_0" fill="#221647" fill-opacity="1" fill-rule="nonzero" d=" M356.81 105.12 C356.06,105.12 355.3,105.09 354.55,105.02 C354.55,105.02 219.39,92.89 219.39,92.89 C210.32,92.08 202.51,86.35 199.01,77.93 C199.01,77.93 158.95,-18.37 158.95,-18.37 C157.02,-23 157.68,-28.38 160.66,-32.41 C160.66,-32.41 167.06,-41.06 167.06,-41.06 C169.8,-44.78 174.24,-46.99 178.81,-46.88 C178.81,-46.88 312.85,-44.9 312.85,-44.9 C321.01,-44.78 328.34,-39.53 331.07,-31.83 C331.07,-31.83 354.12,33.02 354.12,33.02 C354.12,33.02 441.72,39.05 441.72,39.05 C444.03,39.21 445.9,40.97 446.2,43.27 C446.2,43.27 448.04,57.48 448.04,57.48 C448.3,59.5 447.27,61.46 445.46,62.4 C445.46,62.4 368.43,102.29 368.43,102.29 C364.82,104.16 360.85,105.12 356.81,105.12z  M178.59 -37.19 C177.12,-37.19 175.73,-36.49 174.85,-35.3 C174.85,-35.3 168.46,-26.65 168.46,-26.65 C167.49,-25.34 167.28,-23.6 167.9,-22.09 C167.9,-22.09 207.96,74.21 207.96,74.21 C210.07,79.29 214.78,82.75 220.26,83.24 C220.26,83.24 220.26,83.24 220.26,83.24 C220.26,83.24 355.41,95.37 355.41,95.37 C358.37,95.64 361.33,95.05 363.97,93.69 C363.97,93.69 437.99,55.35 437.99,55.35 C437.99,55.35 437.09,48.45 437.09,48.45 C437.09,48.45 350.29,42.48 350.29,42.48 C348.36,42.34 346.7,41.08 346.05,39.26 C346.05,39.26 321.94,-28.59 321.94,-28.59 C320.55,-32.49 316.84,-35.15 312.7,-35.21 C312.7,-35.21 178.66,-37.19 178.66,-37.19 C178.64,-37.19 178.61,-37.19 178.59,-37.19z "/><path id="_R_G_L_5_G_D_4_P_0" fill="#221647" fill-opacity="1" fill-rule="nonzero" d=" M370.06 100.84 C368.03,100.84 366.14,99.55 365.46,97.52 C365.46,97.52 346.02,39.17 346.02,39.17 C345.18,36.63 346.55,33.89 349.09,33.04 C351.63,32.19 354.37,33.57 355.22,36.11 C355.22,36.11 374.66,94.46 374.66,94.46 C375.51,97 374.14,99.74 371.6,100.59 C371.09,100.76 370.57,100.84 370.06,100.84z "/><path id="_R_G_L_5_G_D_5_P_0" fill="#221647" fill-opacity="1" fill-rule="nonzero" d=" M364.88 84.09 C363.52,84.09 362.22,83.34 361.58,82.04 C360.68,80.22 361.43,78.02 363.25,77.12 C363.25,77.12 437.6,40.44 437.6,40.44 C439.42,39.54 441.62,40.29 442.52,42.11 C443.42,43.93 442.67,46.14 440.85,47.03 C440.85,47.03 366.5,83.72 366.5,83.72 C365.98,83.97 365.42,84.09 364.88,84.09z "/><path id="_R_G_L_5_G_D_6_P_0" fill="#221647" fill-opacity="1" fill-rule="nonzero" d=" M339.59 102.45 C339.13,102.45 338.66,102.43 338.2,102.38 C336.18,102.17 334.71,100.36 334.92,98.34 C335.13,96.33 336.95,94.86 338.95,95.07 C341.03,95.29 342.98,94.47 344.28,92.84 C345.59,91.21 345.96,89.14 345.29,87.16 C345.29,87.16 312.45,-11 312.45,-11 C310.98,-15.38 306.89,-18.33 302.27,-18.33 C302.27,-18.33 174.29,-20.58 174.29,-20.58 C172.78,-20.62 171.4,-19.92 170.52,-18.69 C169.63,-17.46 169.42,-15.94 169.93,-14.51 C169.93,-14.51 170.85,-11.95 170.85,-11.95 C171.53,-10.04 170.54,-7.94 168.62,-7.25 C166.72,-6.57 164.61,-7.57 163.93,-9.48 C163.93,-9.48 163.01,-12.03 163.01,-12.03 C161.69,-15.71 162.27,-19.8 164.55,-22.97 C166.82,-26.15 170.54,-28.06 174.42,-27.93 C174.42,-27.93 302.33,-25.68 302.33,-25.68 C310.06,-25.68 316.95,-20.72 319.42,-13.33 C319.42,-13.33 352.27,84.82 352.27,84.82 C353.71,89.16 352.87,93.87 350.02,97.44 C347.46,100.64 343.63,102.45 339.59,102.45z "/><path id="_R_G_L_5_G_D_7_P_0" fill="#221647" fill-opacity="1" fill-rule="nonzero" d=" M325.49 -33.92 C325.49,-33.92 312.4,-22.75 312.4,-22.75 C312.4,-22.75 319.64,-38.36 319.64,-38.36 C322.57,-43.71 329.85,-38.18 325.49,-33.92 C325.49,-33.92 325.49,-33.92 325.49,-33.92z "/><path id="_R_G_L_5_G_D_8_P_0" fill="#221647" fill-opacity="1" fill-rule="nonzero" d=" M278.77 29.81 C278.77,44.34 268.04,56.13 254.79,56.13 C249.82,56.13 245.2,54.47 241.37,51.62 C239.42,50.16 240.04,47.17 242.4,46.56 C251.2,44.28 257.64,36.92 257.64,28.19 C257.64,20.5 252.64,13.87 245.43,10.84 C243.17,9.89 242.95,6.73 245.17,5.66 C248.11,4.25 251.36,3.46 254.79,3.46 C268.04,3.46 278.77,15.25 278.77,29.81z "/><path id="_R_G_L_5_G_D_9_P_0" fill="#ffffff" fill-opacity="1" fill-rule="nonzero" d=" M281.71 34.22 C281.71,48.75 270.98,60.54 257.73,60.54 C252.76,60.54 248.13,58.88 244.31,56.03 C243.24,55.24 242.94,53.97 243.28,52.9 C246.69,54.96 250.62,56.13 254.79,56.13 C268.04,56.13 278.77,44.34 278.77,29.81 C278.77,24.97 277.58,20.43 275.49,16.53 C279.37,21.21 281.71,27.41 281.71,34.22z "/></g><g id="_R_G_L_4_G" transform=" translate(550, 508)"><path id="_R_G_L_4_G_D_0_P_0" fill="#ffffff" fill-opacity="1" fill-rule="nonzero" d=" M429.14 15.06 C427.5,15.06 425.85,14.85 424.22,14.44 C414.69,12.06 405.62,7.89 399.35,3.01 C394.24,-0.95 391.36,-7.02 391.43,-13.63 C391.43,-13.63 391.5,-20.24 391.5,-20.24 C391.5,-20.24 386.48,-15.94 386.48,-15.94 C381.16,-11.39 379.16,-9.95 378.43,-9.49 C377.48,-8.89 376.34,-8.57 375.12,-8.57 C373.56,-8.57 371.99,-9.07 370.58,-10.01 C368.7,-11.26 364.49,-15.19 366.07,-24.57 C367.84,-35.04 386.3,-48.17 401.57,-56.23 C402.84,-56.9 406.6,-58.02 417.6,-58.02 C427.76,-58.02 439.62,-57.05 445.79,-56.48 C445.79,-56.48 446.02,-56.45 446.02,-56.45 C446.02,-56.45 472.28,-58 472.28,-58 C472.34,-58 472.41,-58 472.48,-57.99 C484.56,-56.33 494.23,-48.43 499.07,-36.33 C505.48,-20.27 502.3,-0.74 490.98,13.44 C490.62,13.88 490.1,14.13 489.53,14.13 C489.24,14.13 488.8,14.06 488.38,13.73 C488.38,13.73 486.74,12.31 486.74,12.31 C486.74,12.31 484.84,13.38 484.84,13.38 C484.56,13.55 484.23,13.64 483.9,13.64 C483.76,13.64 483.61,13.62 483.46,13.59 C483.46,13.59 448.6,5.29 448.6,5.29 C448.6,5.29 447.42,6.47 447.42,6.47 C444.21,9.68 437.57,15.06 429.14,15.06z "/><path id="_R_G_L_4_G_D_1_P_0" fill="#b0a8c8" fill-opacity="1" fill-rule="nonzero" d=" M505.05 -13.44 C479.2,-9.98 442.6,-19.69 442.6,-19.69 C442.6,-19.69 433.38,-14.32 433.38,-14.32 C410.94,-0.37 398.13,-27.29 398.13,-27.29 C398.13,-27.29 382.36,-18.71 382.36,-18.71 C382.36,-18.71 382.14,-8.48 382.14,-8.48 C383.87,-9.82 386.13,-11.69 388.43,-13.67 C388.35,-6.22 391.63,0.82 397.5,5.38 C404.1,10.51 413.57,14.87 423.5,17.35 C425.45,17.84 427.33,18.05 429.14,18.05 C438.68,18.05 446.06,12.06 449.54,8.59 C449.54,8.59 482.77,16.51 482.77,16.51 C483.46,16.67 484.15,16.67 484.8,16.55 C483.91,13.71 483.27,12.16 483.27,12.16 C487.06,13.27 490.57,14.08 493.84,14.64 C500.2,6.41 504.02,-3.44 505.05,-13.44z "/><path id="_R_G_L_4_G_D_2_P_0" fill="#221647" fill-opacity="1" fill-rule="nonzero" d=" M429.14 18.05 C427.33,18.05 425.45,17.84 423.5,17.35 C413.57,14.87 404.1,10.51 397.5,5.38 C391.63,0.82 388.35,-6.22 388.43,-13.67 C385,-10.73 381.66,-7.98 380.04,-6.96 C376.83,-4.93 372.47,-5.15 368.91,-7.51 C366.54,-9.09 361.24,-13.96 363.11,-25.07 C365.63,-39.97 394.43,-55.85 400.17,-58.89 C407.22,-62.61 434.32,-60.56 446.07,-59.46 C446.07,-59.46 471.97,-60.99 471.97,-60.99 C472.29,-61.01 472.61,-61 472.92,-60.95 C486.06,-59.15 496.61,-50.58 501.86,-37.44 C508.66,-20.4 505.31,0.3 493.32,15.31 C491.65,17.4 488.6,17.74 486.51,16.07 C486.46,16.03 486.42,16 486.38,15.96 C485.33,16.58 484.05,16.81 482.78,16.51 C482.78,16.51 449.54,8.59 449.54,8.59 C446.06,12.06 438.68,18.05 429.14,18.05z  M395.27 -30.97 C396.08,-30.97 396.9,-30.77 397.64,-30.35 C399.45,-29.34 400.41,-27.29 400.04,-25.25 C400.04,-25.25 398.38,-16.16 398.38,-16.16 C397.4,-10.79 399.34,-5.47 403.45,-2.27 C408.94,1.99 417.31,5.82 425.85,7.95 C435.81,10.44 444,0.32 444.08,0.21 C445.25,-1.26 447.18,-1.93 449.01,-1.5 C449.01,-1.5 485.02,7.08 485.02,7.08 C485.68,7.24 486.28,7.52 486.79,7.9 C495.65,-4.15 498.1,-20.7 492.85,-33.84 C488.94,-43.64 481.56,-49.82 472.05,-51.28 C472.05,-51.28 446.27,-49.76 446.27,-49.76 C446.02,-49.75 445.77,-49.75 445.53,-49.78 C428.61,-51.37 408.16,-51.97 404.69,-50.31 C390.07,-42.59 373.87,-30.55 372.67,-23.45 C372.1,-20.06 372.52,-17.33 373.83,-15.97 C374.34,-15.44 374.83,-15.3 375.05,-15.28 C377.64,-17.02 386.75,-24.99 392.03,-29.73 C392.94,-30.55 394.1,-30.97 395.27,-30.97z "/><path id="_R_G_L_4_G_D_3_P_0" fill="#221647" fill-opacity="1" fill-rule="nonzero" d=" M445.28 5.81 C445.28,5.81 436.83,-5.77 436.83,-5.77 C436.83,-5.77 439.28,-6.23 439.28,-6.23 C439.28,-6.23 434.01,2.18 434.01,2.18 C434.01,2.18 436.52,-7.42 436.52,-7.42 C436.86,-8.59 438.18,-8.68 438.97,-7.89 C438.97,-7.89 450.49,0.63 450.49,0.63 C454.87,4.24 448.87,10.21 445.28,5.81 C445.28,5.81 445.28,5.81 445.28,5.81z "/></g><g id="_R_G_L_3_G"><path id="_R_G_L_3_G_D_0_P_0" fill="#ffffff" fill-opacity="1" fill-rule="nonzero" d=" M229.97 -153.68 C243.36,-132.46 262.21,-114.48 285.42,-101.99 C290.16,-99.45 295.06,-97.13 300.13,-95.06 C302.6,-94.05 305.12,-93.1 307.69,-92.19 C315.42,-89.51 323.22,-87.48 331.05,-86.08 C337.8,-84.86 344.56,-84.12 351.29,-83.82 C359.41,-83.45 367.49,-83.74 375.45,-84.65 C378.35,-84.99 381.24,-85.41 384.11,-85.89 C436.58,-94.96 482.88,-130.94 502.15,-184.03 C530.54,-262.23 489.5,-347.89 410.51,-375.37 C395.29,-380.66 379.76,-383.42 364.42,-383.83 C362.63,-383.9 360.83,-383.91 359.03,-383.88 C354.21,-383.85 349.43,-383.6 344.68,-383.12 C333.71,-382 322.93,-379.7 312.56,-376.32 C302.19,-372.96 292.2,-368.49 282.79,-363.04 C279.79,-361.3 276.86,-359.47 273.98,-357.54 C269.67,-354.63 265.51,-351.51 261.49,-348.16 C241.47,-331.52 225.5,-309.59 216.05,-283.54 C199.71,-238.56 206.36,-191.11 229.97,-153.68z "/><path id="_R_G_L_3_G_D_1_P_0" fill="#221647" fill-opacity="1" fill-rule="nonzero" d=" M358.07 -83.23 C355.8,-83.23 353.53,-83.29 351.27,-83.39 C344.43,-83.7 337.6,-84.46 330.98,-85.66 C323.08,-87.07 315.19,-89.13 307.54,-91.79 C304.74,-92.78 302.26,-93.72 299.97,-94.66 C294.99,-96.69 290.03,-99.03 285.22,-101.61 C262.53,-113.82 243.31,-131.74 229.61,-153.46 C229.61,-153.46 229.61,-153.46 229.61,-153.46 C204.9,-192.62 199.81,-240.08 215.64,-283.68 C224.79,-308.9 240.55,-331.31 261.22,-348.49 C265.12,-351.75 269.34,-354.92 273.75,-357.89 C276.57,-359.79 279.54,-361.65 282.57,-363.41 C292.01,-368.88 302.06,-373.36 312.43,-376.73 C322.9,-380.14 333.74,-382.43 344.64,-383.54 C349.38,-384.02 354.22,-384.28 359.02,-384.31 C360.94,-384.34 362.72,-384.32 364.44,-384.26 C380.09,-383.84 395.64,-380.99 410.65,-375.78 C449.12,-362.39 479.84,-334.96 497.17,-298.52 C514.35,-262.37 516.27,-221.66 502.55,-183.88 C483.93,-132.58 438.58,-94.87 384.18,-85.47 C381.33,-84.99 378.41,-84.57 375.5,-84.22 C369.71,-83.57 363.87,-83.23 358.07,-83.23z  M230.33 -153.91 C243.95,-132.33 263.07,-114.5 285.62,-102.37 C290.41,-99.8 295.34,-97.47 300.29,-95.46 C302.57,-94.52 305.04,-93.58 307.83,-92.6 C315.43,-89.95 323.27,-87.9 331.13,-86.5 C337.72,-85.31 344.51,-84.55 351.31,-84.24 C359.27,-83.89 367.38,-84.16 375.4,-85.08 C378.3,-85.41 381.21,-85.83 384.04,-86.31 C438.13,-95.66 483.23,-133.16 501.74,-184.17 C515.38,-221.73 513.48,-262.21 496.4,-298.15 C479.17,-334.38 448.62,-361.66 410.37,-374.97 C395.44,-380.15 379.98,-382.99 364.41,-383.4 C362.7,-383.46 360.94,-383.48 359.03,-383.46 C354.25,-383.43 349.44,-383.17 344.73,-382.69 C333.89,-381.59 323.11,-379.31 312.69,-375.92 C302.38,-372.57 292.39,-368.11 283,-362.67 C279.98,-360.92 277.03,-359.07 274.22,-357.18 C269.84,-354.22 265.65,-351.08 261.77,-347.83 C241.22,-330.75 225.55,-308.47 216.45,-283.39 C200.7,-240.04 205.76,-192.85 230.33,-153.91z "/><path id="_R_G_L_3_G_D_2_P_0" fill="#b0a8c8" fill-opacity="1" fill-rule="nonzero" d=" M502.15 -184.03 C482.89,-130.94 436.58,-94.95 384.1,-85.9 C381.24,-85.4 378.35,-84.99 375.45,-84.65 C367.49,-83.74 359.41,-83.45 351.29,-83.81 C344.57,-84.12 337.8,-84.86 331.06,-86.08 C323.22,-87.47 315.42,-89.5 307.68,-92.19 C305.13,-93.11 302.6,-94.04 300.13,-95.05 C295.05,-97.12 290.16,-99.45 285.42,-101.99 C262.21,-114.48 243.36,-132.45 229.97,-153.69 C222.61,-165.35 216.89,-177.99 213.01,-191.22 C226.26,-171.25 244.43,-154.35 266.58,-142.43 C271.31,-139.88 276.21,-137.57 281.29,-135.5 C283.75,-134.48 286.27,-133.54 288.84,-132.63 C296.58,-129.94 304.38,-127.91 312.21,-126.51 C318.96,-125.3 325.72,-124.56 332.44,-124.25 C340.56,-123.89 348.65,-124.18 356.6,-125.09 C359.51,-125.43 362.39,-125.85 365.26,-126.34 C417.74,-135.4 464.04,-171.38 483.3,-224.47 C494.55,-255.45 494.9,-287.59 486.32,-316.81 C511.47,-278.95 518.91,-230.19 502.15,-184.03z "/><path id="_R_G_L_3_G_D_3_P_0" fill="#221647" fill-opacity="1" fill-rule="nonzero" d=" M358.07 -80.37 C355.75,-80.37 353.44,-80.42 351.14,-80.53 C344.18,-80.84 337.22,-81.62 330.47,-82.84 C322.42,-84.27 314.39,-86.37 306.6,-89.08 C303.74,-90.1 301.22,-91.05 298.88,-92.01 C293.82,-94.08 288.76,-96.46 283.86,-99.09 C260.74,-111.53 241.15,-129.8 227.18,-151.93 C227.18,-151.93 227.18,-151.93 227.18,-151.93 C202,-191.84 196.81,-240.22 212.95,-284.66 C222.27,-310.36 238.33,-333.19 259.39,-350.69 C263.36,-354.02 267.65,-357.24 272.14,-360.26 C275.02,-362.21 278.05,-364.1 281.14,-365.89 C290.75,-371.46 300.98,-376.02 311.55,-379.46 C322.21,-382.93 333.25,-385.26 344.35,-386.39 C349.18,-386.88 354.11,-387.14 359,-387.18 C360.96,-387.2 362.77,-387.19 364.54,-387.12 C380.46,-386.7 396.3,-383.79 411.59,-378.48 C450.79,-364.85 482.1,-336.88 499.75,-299.75 C517.28,-262.9 519.22,-221.41 505.24,-182.9 C486.28,-130.64 440.08,-92.22 384.67,-82.65 C381.77,-82.15 378.8,-81.73 375.83,-81.38 C369.92,-80.71 363.98,-80.37 358.07,-80.37z  M232.76 -155.44 C246.11,-134.27 264.86,-116.79 286.98,-104.89 C291.67,-102.37 296.52,-100.09 301.37,-98.11 C303.62,-97.19 306.04,-96.27 308.78,-95.3 C316.23,-92.71 323.92,-90.7 331.63,-89.32 C338.1,-88.15 344.77,-87.41 351.44,-87.11 C359.26,-86.75 367.21,-87.02 375.08,-87.92 C377.92,-88.25 380.77,-88.67 383.56,-89.14 C436.63,-98.31 480.89,-135.1 499.05,-185.15 C512.42,-221.99 510.56,-261.68 493.81,-296.92 C476.91,-332.45 446.95,-359.21 409.43,-372.26 C394.78,-377.35 379.61,-380.13 364.33,-380.54 C362.64,-380.6 360.94,-380.62 359.07,-380.59 C354.36,-380.56 349.64,-380.31 345.01,-379.84 C334.38,-378.76 323.81,-376.52 313.58,-373.19 C303.45,-369.9 293.65,-365.53 284.44,-360.19 C281.48,-358.47 278.58,-356.66 275.83,-354.8 C271.52,-351.9 267.41,-348.82 263.61,-345.63 C243.44,-328.87 228.07,-307.01 219.14,-282.42 C203.7,-239.9 208.66,-193.62 232.76,-155.44 C232.76,-155.44 232.76,-155.44 232.76,-155.44z "/><path id="_R_G_L_3_G_D_4_P_0" fill="#221647" fill-opacity="1" fill-rule="nonzero" d=" M358.07 -79.42 C355.74,-79.42 353.41,-79.47 351.1,-79.57 C344.09,-79.89 337.09,-80.67 330.3,-81.9 C322.21,-83.34 314.12,-85.46 306.29,-88.18 C303.4,-89.2 300.87,-90.16 298.52,-91.13 C293.42,-93.21 288.34,-95.6 283.41,-98.25 C260.15,-110.77 240.43,-129.15 226.38,-151.42 C226.38,-151.42 226.38,-151.42 226.38,-151.42 C201.03,-191.59 195.81,-240.27 212.05,-284.99 C221.43,-310.84 237.59,-333.82 258.78,-351.43 C262.77,-354.77 267.09,-358.01 271.61,-361.06 C274.5,-363.01 277.55,-364.91 280.66,-366.71 C290.33,-372.32 300.62,-376.91 311.25,-380.36 C321.98,-383.86 333.08,-386.21 344.25,-387.34 C349.11,-387.83 354.07,-388.1 359,-388.13 C360.96,-388.16 362.79,-388.14 364.57,-388.08 C380.59,-387.65 396.52,-384.73 411.9,-379.39 C451.35,-365.66 482.85,-337.53 500.62,-300.16 C518.25,-263.08 520.21,-221.32 506.14,-182.58 C487.06,-129.99 440.57,-91.34 384.83,-81.71 C381.91,-81.21 378.93,-80.78 375.95,-80.43 C370,-79.75 364.01,-79.42 358.07,-79.42z  M233.56 -155.95 C246.83,-134.92 265.46,-117.56 287.43,-105.73 C292.09,-103.23 296.91,-100.96 301.73,-98.99 C303.97,-98.08 306.37,-97.16 309.1,-96.2 C316.49,-93.63 324.14,-91.63 331.8,-90.26 C338.23,-89.1 344.85,-88.36 351.48,-88.06 C359.25,-87.71 367.15,-87.98 374.97,-88.87 C377.79,-89.2 380.63,-89.61 383.39,-90.08 C436.13,-99.19 480.11,-135.75 498.15,-185.48 C511.44,-222.07 509.59,-261.5 492.94,-296.51 C476.16,-331.81 446.39,-358.39 409.11,-371.36 C394.56,-376.41 379.49,-379.18 364.31,-379.58 C362.63,-379.64 360.93,-379.66 359.08,-379.64 C354.39,-379.61 349.7,-379.35 345.11,-378.89 C334.54,-377.81 324.04,-375.59 313.88,-372.28 C303.81,-369.02 294.07,-364.67 284.92,-359.36 C281.97,-357.66 279.09,-355.86 276.36,-354.01 C272.09,-351.13 268,-348.06 264.22,-344.9 C244.18,-328.25 228.91,-306.53 220.04,-282.09 C204.7,-239.86 209.64,-193.88 233.56,-155.95 C233.56,-155.95 233.56,-155.95 233.56,-155.95z "/><path id="_R_G_L_3_G_D_5_P_0" fill="#221647" fill-opacity="1" fill-rule="nonzero" d=" M254.57 -124.04 C347.13,-68.51 465.46,-120.08 465.54,-226.31 C465.59,-298.59 393.95,-353.94 323.64,-349.06 C272.46,-345.51 223.92,-319.94 207.23,-240.05 C207.23,-240.05 205.37,-203.6 216.74,-180.15 C228.12,-156.7 243.21,-135.82 243.21,-135.82 C243.21,-135.82 254.57,-124.04 254.57,-124.04z "/><path id="_R_G_L_3_G_D_6_P_0" fill="#0b0718" fill-opacity="1" fill-rule="nonzero" d=" M465.53 -226.31 C465.46,-120.08 347.12,-68.52 254.57,-124.04 C254.57,-124.04 252.27,-126.43 252.27,-126.43 C351.12,-115.55 445.15,-179.69 447.25,-287.11 C458.74,-269.31 465.55,-248.62 465.53,-226.31z "/><path id="_R_G_L_3_G_D_7_P_0" fill="#221647" fill-opacity="1" fill-rule="nonzero" d=" M334.44 -81.8 C333.28,-81.8 332.13,-81.81 330.97,-81.83 C330.97,-81.83 330.31,-81.9 330.31,-81.9 C322.2,-83.34 314.12,-85.46 306.29,-88.18 C303.4,-89.2 300.87,-90.16 298.52,-91.13 C293.42,-93.21 288.34,-95.6 283.41,-98.25 C260.15,-110.77 240.43,-129.15 226.38,-151.42 C226.38,-151.42 226.38,-151.42 226.38,-151.42 C201.03,-191.59 195.81,-240.27 212.05,-284.99 C221.43,-310.84 237.59,-333.82 258.78,-351.43 C258.78,-351.43 259.11,-351.71 259.11,-351.71 C259.11,-351.71 259.5,-351.91 259.5,-351.91 C277.26,-361.36 298.2,-366.98 321.74,-368.62 C364.14,-371.56 408.64,-355.36 440.84,-325.29 C469.85,-298.2 485.81,-263.08 485.78,-226.4 C485.75,-186.48 471.4,-151.36 444.29,-124.82 C416.25,-97.37 376.38,-81.8 334.44,-81.8z  M331.47 -90.32 C372.31,-89.59 411.23,-104.35 438.34,-130.89 C463.79,-155.8 477.25,-188.83 477.29,-226.41 C477.31,-260.71 462.31,-293.62 435.04,-319.08 C404.53,-347.57 362.4,-362.92 322.33,-360.14 C300.16,-358.6 280.5,-353.37 263.87,-344.61 C244.01,-328 228.86,-306.39 220.04,-282.09 C204.7,-239.86 209.64,-193.88 233.56,-155.95 C233.56,-155.95 233.56,-155.95 233.56,-155.95 C246.83,-134.92 265.46,-117.56 287.43,-105.73 C292.09,-103.23 296.91,-100.96 301.74,-98.99 C303.97,-98.08 306.37,-97.16 309.1,-96.2 C316.39,-93.67 323.92,-91.69 331.47,-90.32z "/><path id="_R_G_L_3_G_D_8_P_0" fill="#221647" fill-opacity="1" fill-rule="nonzero" d=" M334.92 -99.89 C307.29,-99.89 279.13,-107.54 253.79,-122.74 C253.79,-122.74 253.48,-122.99 253.48,-122.99 C253.48,-122.99 241.98,-134.93 241.98,-134.93 C241.83,-135.14 226.68,-156.19 215.38,-179.49 C203.96,-203.02 205.64,-238.63 205.71,-240.13 C205.71,-240.13 205.75,-240.36 205.75,-240.36 C220.09,-309.06 259.72,-346.14 323.53,-350.57 C360.63,-353.13 399.58,-338.96 427.79,-312.63 C453.13,-288.97 467.08,-258.31 467.06,-226.31 C467.02,-179.85 444.25,-140.33 404.59,-117.89 C383.34,-105.87 359.34,-99.89 334.92,-99.89z  M255.53 -125.24 C302.27,-97.28 358.79,-95.47 403.1,-120.53 C441.78,-142.42 463.99,-180.97 464.02,-226.32 C464.04,-257.46 450.44,-287.33 425.72,-310.42 C398.12,-336.18 359.99,-350.07 323.74,-347.54 C261.49,-343.22 222.8,-306.99 208.74,-239.86 C208.64,-237.6 207.35,-203 218.11,-180.82 C228.93,-158.51 243.31,-138.28 244.38,-136.8 C244.38,-136.8 255.53,-125.24 255.53,-125.24z "/><path id="_R_G_L_3_G_D_9_P_0" fill="#ffffff" fill-opacity="1" fill-rule="nonzero" d=" M532.44 -237.28 C536.02,-207.91 521.46,-181.08 499.89,-177.35 C478.33,-173.62 457.94,-194.41 454.35,-223.77 C454.33,-223.96 454.31,-224.15 454.29,-224.34 C450.95,-253.48 465.49,-280 486.9,-283.7 C503.56,-286.58 519.51,-274.83 527.57,-255.8 C529.93,-250.2 531.62,-243.95 532.44,-237.28z "/><path id="_R_G_L_3_G_D_10_P_0" fill="#221647" fill-opacity="1" fill-rule="nonzero" d=" M532.44 -237.28 C536.02,-207.91 521.46,-181.08 499.89,-177.35 C478.33,-173.62 457.94,-194.41 454.35,-223.77 C454.33,-223.96 454.31,-224.15 454.29,-224.34 C457.03,-221.74 461.08,-219.41 465.96,-221.27 C474.5,-224.54 487.91,-246.14 487.91,-246.14 C487.91,-246.14 505.08,-250.44 527.57,-255.8 C529.93,-250.2 531.62,-243.95 532.44,-237.28z "/><path id="_R_G_L_3_G_D_11_P_0" fill="#221647" fill-opacity="1" fill-rule="nonzero" d=" M494.81 -172.67 C487.19,-172.67 479.71,-175.27 472.89,-180.33 C460.65,-189.42 452.36,-205.07 450.14,-223.26 C446.28,-254.79 462.45,-283.78 486.18,-287.88 C495.78,-289.54 505.36,-287.07 513.9,-280.72 C526.14,-271.63 534.44,-255.98 536.66,-237.79 C536.66,-237.79 536.66,-237.79 536.66,-237.79 C540.51,-206.26 524.34,-177.27 500.61,-173.17 C498.68,-172.83 496.74,-172.67 494.81,-172.67z  M491.93 -279.88 C490.49,-279.88 489.06,-279.76 487.63,-279.51 C468.29,-276.17 455.26,-251.4 458.57,-224.29 C460.48,-208.64 467.73,-194.75 477.96,-187.15 C484.59,-182.23 491.92,-180.29 499.17,-181.54 C518.5,-184.88 531.54,-209.65 528.22,-236.76 C528.22,-236.76 528.22,-236.76 528.22,-236.76 C526.31,-252.42 519.06,-266.3 508.83,-273.9 C503.52,-277.85 497.75,-279.88 491.93,-279.88z "/><path id="_R_G_L_3_G_D_12_P_0" fill="#ffffff" fill-opacity="1" fill-rule="nonzero" d=" M536.06 -234.13 C538.89,-210.18 528,-188.37 511.73,-185.43 C495.47,-182.49 479.99,-199.52 477.16,-223.47 C474.34,-247.43 485.23,-269.23 501.49,-272.17 C517.75,-275.12 533.23,-258.08 536.06,-234.13z "/><path id="_R_G_L_3_G_D_13_P_0" fill="#221647" fill-opacity="1" fill-rule="nonzero" d=" M511.73 -185.43 C528,-188.37 538.89,-210.17 536.06,-234.13 C535.76,-236.73 535.29,-239.25 534.7,-241.67 C532.35,-224.65 522.9,-211.17 510.25,-208.89 C495.97,-206.33 482.28,-218.9 477.1,-238 C476.58,-233.35 476.57,-228.46 477.16,-223.48 C479.99,-199.52 495.47,-182.49 511.73,-185.43z "/><path id="_R_G_L_3_G_D_14_P_0" fill="#221647" fill-opacity="1" fill-rule="nonzero" d=" M508.03 -180.84 C502.38,-180.84 496.8,-182.79 491.69,-186.57 C481.78,-193.91 474.77,-207.52 472.95,-222.98 C469.81,-249.52 482.01,-272.97 500.73,-276.35 C507.88,-277.65 515.08,-275.8 521.53,-271.03 C531.44,-263.69 538.45,-250.09 540.28,-234.63 C540.28,-234.63 540.28,-234.63 540.28,-234.63 C543.41,-208.08 531.21,-184.63 512.49,-181.25 C511.01,-180.98 509.52,-180.84 508.03,-180.84z  M505.13 -268.25 C504.17,-268.25 503.2,-268.17 502.25,-267.99 C488.41,-265.49 478.86,-245.33 481.38,-223.97 C482.94,-210.8 488.68,-199.37 496.74,-193.4 C501.27,-190.05 506.2,-188.74 510.98,-189.61 C524.81,-192.11 534.36,-212.27 531.84,-233.63 C531.84,-233.63 531.84,-233.63 531.84,-233.63 C530.28,-246.81 524.54,-258.23 516.48,-264.2 C512.86,-266.88 508.99,-268.25 505.13,-268.25z "/><path id="_R_G_L_3_G_D_15_P_0" fill="#b7b7b7" fill-opacity="1" fill-rule="nonzero" d=" M362.26 -318.85 C362.26,-318.85 299.18,-320.89 265.87,-281.56 C265.83,-281.52 265.8,-281.48 265.77,-281.44 C258.76,-273.16 252.62,-252.54 250.8,-241.93 C248.38,-227.9 248.8,-220.93 249.5,-212.13 C251.67,-185.4 257.76,-173.3 257.76,-173.3 C241.2,-186.1 231.21,-201.4 229.18,-223.65 C228.99,-225.84 228.87,-228.11 228.82,-230.45 C228.81,-230.99 228.81,-231.52 228.82,-232.06 C228.81,-232.06 228.81,-232.07 228.82,-232.09 C229.06,-236.83 229.62,-240.01 230.84,-246.97 C234.51,-267.98 244.15,-295.79 269.26,-310.47 C316.21,-337.92 364.27,-321.84 362.26,-318.85z "/><path id="_R_G_L_3_G_D_16_P_0" fill="#b7b7b7" fill-opacity="1" fill-rule="nonzero" d=" M391.5 -234.75 C395.88,-222.61 408,-215.84 418.57,-219.62 C429.15,-223.41 434.17,-236.31 429.79,-248.44 C425.42,-260.58 413.3,-267.35 402.72,-263.57 C392.15,-259.79 387.12,-246.88 391.5,-234.75z "/><path id="_R_G_L_3_G_D_17_P_0" fill="#b7b7b7" fill-opacity="1" fill-rule="nonzero" d=" M417.4 -195.17 C419.63,-190.33 424.86,-187.96 429.08,-189.88 C433.3,-191.8 434.92,-197.28 432.69,-202.12 C430.46,-206.95 425.23,-209.32 421.01,-207.4 C416.79,-205.48 415.17,-200.01 417.4,-195.17z "/></g><g id="_R_G_L_2_G"><path id="_R_G_L_2_G_D_0_P_0" fill="#c0eb75" fill-opacity="1" fill-rule="nonzero" d=" M662.99 -147.56 C662.99,-147.56 672.82,-130.67 672.82,-130.67 C672.82,-130.67 692.31,-129.2 692.31,-129.2 C697.87,-128.78 700.53,-122.17 696.82,-118.02 C696.82,-118.02 683.79,-103.45 683.79,-103.45 C683.79,-103.45 688.42,-84.46 688.42,-84.46 C689.73,-79.05 684.28,-74.47 679.18,-76.72 C679.18,-76.72 661.3,-84.6 661.3,-84.6 C661.3,-84.6 644.66,-74.34 644.66,-74.34 C639.92,-71.41 633.89,-75.19 634.45,-80.73 C634.45,-80.73 636.42,-100.18 636.42,-100.18 C636.42,-100.18 621.52,-112.82 621.52,-112.82 C617.27,-116.42 619,-123.33 624.44,-124.51 C624.44,-124.51 643.54,-128.65 643.54,-128.65 C643.54,-128.65 650.97,-146.73 650.97,-146.73 C653.08,-151.88 660.18,-152.37 662.99,-147.56z "/><path id="_R_G_L_2_G_D_1_P_0" fill="#677f33" fill-opacity="1" fill-rule="nonzero" d=" M696.82 -118.02 C696.82,-118.02 683.79,-103.44 683.79,-103.44 C683.79,-103.44 688.41,-84.46 688.41,-84.46 C689.73,-79.04 684.27,-74.48 679.19,-76.71 C679.19,-76.71 661.3,-84.6 661.3,-84.6 C661.3,-84.6 644.66,-74.34 644.66,-74.34 C640.28,-71.63 634.79,-74.67 634.43,-79.53 C635.42,-79.62 636.41,-79.94 637.35,-80.51 C637.35,-80.51 653.98,-90.76 653.98,-90.76 C653.98,-90.76 671.87,-82.88 671.87,-82.88 C676.97,-80.65 682.42,-85.21 681.11,-90.63 C681.11,-90.63 676.49,-109.61 676.49,-109.61 C676.49,-109.61 689.51,-124.18 689.51,-124.18 C690.85,-125.69 691.36,-127.53 691.2,-129.28 C691.2,-129.28 692.32,-129.2 692.32,-129.2 C697.87,-128.78 700.53,-122.17 696.82,-118.02z "/><path id="_R_G_L_2_G_D_2_P_0" fill="#ffffff" fill-opacity="1" fill-rule="nonzero" d=" M664.27 -145.33 C662.07,-145.02 660.01,-143.65 659.02,-141.25 C659.02,-141.25 651.59,-123.17 651.59,-123.17 C651.59,-123.17 632.5,-119.03 632.5,-119.03 C627.06,-117.85 625.33,-110.94 629.57,-107.34 C629.57,-107.34 644.48,-94.7 644.48,-94.7 C644.48,-94.7 642.51,-75.25 642.51,-75.25 C642.44,-74.65 642.46,-74.05 642.56,-73.49 C638.34,-72.53 633.98,-75.99 634.45,-80.73 C634.45,-80.73 636.42,-100.18 636.42,-100.18 C636.42,-100.18 621.52,-112.82 621.52,-112.82 C617.27,-116.43 619,-123.33 624.44,-124.51 C624.44,-124.51 643.55,-128.65 643.55,-128.65 C643.55,-128.65 650.96,-146.73 650.96,-146.73 C653.09,-151.87 660.19,-152.37 662.98,-147.56 C662.98,-147.56 664.27,-145.33 664.27,-145.33z "/><path id="_R_G_L_2_G_D_3_P_0" fill="#221647" fill-opacity="1" fill-rule="nonzero" d=" M641.13 -69.21 C639.15,-69.21 637.16,-69.77 635.39,-70.87 C631.87,-73.08 629.94,-77.01 630.36,-81.14 C630.36,-81.14 632.11,-98.44 632.11,-98.44 C632.11,-98.44 618.86,-109.69 618.86,-109.69 C615.69,-112.37 614.35,-116.54 615.36,-120.57 C616.37,-124.6 619.51,-127.65 623.57,-128.53 C623.57,-128.53 640.56,-132.21 640.56,-132.21 C640.56,-132.21 647.16,-148.29 647.16,-148.29 C648.74,-152.13 652.29,-154.7 656.44,-154.98 C660.58,-155.25 664.45,-153.21 666.54,-149.63 C666.54,-149.63 675.29,-134.6 675.29,-134.6 C675.29,-134.6 692.62,-133.3 692.62,-133.3 C696.76,-132.98 700.3,-130.4 701.85,-126.54 C703.41,-122.69 702.65,-118.38 699.88,-115.28 C699.88,-115.28 688.3,-102.32 688.3,-102.32 C688.3,-102.32 692.41,-85.43 692.41,-85.43 C693.39,-81.39 692.03,-77.23 688.84,-74.57 C685.66,-71.9 681.32,-71.28 677.52,-72.96 C677.52,-72.96 661.62,-79.97 661.62,-79.97 C661.62,-79.97 646.82,-70.84 646.82,-70.84 C645.06,-69.75 643.1,-69.21 641.13,-69.21z  M657.19 -146.78 C657.12,-146.78 657.06,-146.78 657,-146.78 C656.52,-146.74 655.33,-146.52 654.77,-145.16 C654.77,-145.16 647.35,-127.08 647.35,-127.08 C646.84,-125.83 645.74,-124.91 644.42,-124.63 C644.42,-124.63 625.31,-120.49 625.31,-120.49 C623.88,-120.18 623.46,-119.05 623.34,-118.58 C623.22,-118.1 623.06,-116.9 624.18,-115.96 C624.18,-115.96 639.08,-103.31 639.08,-103.31 C640.11,-102.44 640.65,-101.11 640.51,-99.76 C640.51,-99.76 638.54,-80.32 638.54,-80.32 C638.4,-78.86 639.34,-78.1 639.75,-77.85 C640.17,-77.59 641.26,-77.07 642.5,-77.84 C642.5,-77.84 659.13,-88.1 659.13,-88.1 C660.29,-88.81 661.71,-88.91 662.95,-88.37 C662.95,-88.37 680.84,-80.48 680.84,-80.48 C682.17,-79.9 683.19,-80.56 683.56,-80.87 C683.94,-81.18 684.77,-82.06 684.42,-83.48 C684.42,-83.48 679.8,-102.47 679.8,-102.47 C679.48,-103.79 679.83,-105.18 680.73,-106.19 C680.73,-106.19 693.75,-120.76 693.75,-120.76 C694.72,-121.85 694.41,-123.02 694.22,-123.47 C694.04,-123.92 693.46,-124.99 692,-125.1 C692,-125.1 672.51,-126.57 672.51,-126.57 C671.16,-126.67 669.95,-127.43 669.27,-128.6 C669.27,-128.6 659.43,-145.49 659.43,-145.49 C659.43,-145.49 659.43,-145.49 659.43,-145.49 C658.78,-146.61 657.75,-146.78 657.19,-146.78z "/></g><g id="_R_G_L_1_G"><path id="_R_G_L_1_G_D_0_P_0" fill="#c0eb75" fill-opacity="1" fill-rule="nonzero" d=" M142.59 -415.9 C142.59,-415.9 152.43,-399.01 152.43,-399.01 C152.43,-399.01 171.92,-397.53 171.92,-397.53 C177.47,-397.12 180.13,-390.51 176.42,-386.36 C176.42,-386.36 163.4,-371.79 163.4,-371.79 C163.4,-371.79 168.02,-352.79 168.02,-352.79 C169.34,-347.38 163.88,-342.81 158.79,-345.06 C158.79,-345.06 140.9,-352.94 140.9,-352.94 C140.9,-352.94 124.27,-342.68 124.27,-342.68 C119.53,-339.75 113.5,-343.53 114.06,-349.07 C114.06,-349.07 116.03,-368.51 116.03,-368.51 C116.03,-368.51 101.13,-381.16 101.13,-381.16 C96.88,-384.76 98.61,-391.67 104.05,-392.85 C104.05,-392.85 123.15,-396.98 123.15,-396.98 C123.15,-396.98 130.57,-415.07 130.57,-415.07 C132.69,-420.22 139.79,-420.71 142.59,-415.9z "/><path id="_R_G_L_1_G_D_1_P_0" fill="#677f33" fill-opacity="1" fill-rule="nonzero" d=" M176.42 -386.35 C176.42,-386.35 163.4,-371.78 163.4,-371.78 C163.4,-371.78 168.02,-352.8 168.02,-352.8 C169.34,-347.38 163.88,-342.82 158.79,-345.05 C158.79,-345.05 140.91,-352.93 140.91,-352.93 C140.91,-352.93 124.26,-342.68 124.26,-342.68 C119.89,-339.97 114.4,-343.01 114.04,-347.86 C115.03,-347.96 116.01,-348.27 116.96,-348.85 C116.96,-348.85 133.59,-359.1 133.59,-359.1 C133.59,-359.1 151.47,-351.22 151.47,-351.22 C156.57,-348.99 162.03,-353.55 160.71,-358.97 C160.71,-358.97 156.09,-377.95 156.09,-377.95 C156.09,-377.95 169.12,-392.52 169.12,-392.52 C170.46,-394.03 170.97,-395.87 170.8,-397.62 C170.8,-397.62 171.93,-397.54 171.93,-397.54 C177.48,-397.11 180.14,-390.51 176.42,-386.35z "/><path id="_R_G_L_1_G_D_2_P_0" fill="#ffffff" fill-opacity="1" fill-rule="nonzero" d=" M143.88 -413.67 C141.67,-413.36 139.62,-411.99 138.63,-409.59 C138.63,-409.59 131.2,-391.51 131.2,-391.51 C131.2,-391.51 112.11,-387.37 112.11,-387.37 C106.66,-386.19 104.94,-379.28 109.17,-375.68 C109.17,-375.68 124.09,-363.04 124.09,-363.04 C124.09,-363.04 122.11,-343.59 122.11,-343.59 C122.04,-342.98 122.07,-342.39 122.17,-341.83 C117.95,-340.87 113.59,-344.33 114.05,-349.07 C114.05,-349.07 116.03,-368.52 116.03,-368.52 C116.03,-368.52 101.13,-381.16 101.13,-381.16 C96.88,-384.76 98.6,-391.67 104.05,-392.85 C104.05,-392.85 123.15,-396.99 123.15,-396.99 C123.15,-396.99 130.57,-415.07 130.57,-415.07 C132.7,-420.21 139.8,-420.7 142.59,-415.89 C142.59,-415.89 143.88,-413.67 143.88,-413.67z "/><path id="_R_G_L_1_G_D_3_P_0" fill="#221647" fill-opacity="1" fill-rule="nonzero" d=" M120.74 -337.55 C118.75,-337.55 116.77,-338.1 115,-339.21 C111.48,-341.42 109.55,-345.35 109.97,-349.48 C109.97,-349.48 111.72,-366.78 111.72,-366.78 C111.72,-366.78 98.46,-378.03 98.46,-378.03 C95.3,-380.71 93.96,-384.88 94.97,-388.91 C95.97,-392.94 99.12,-395.99 103.18,-396.87 C103.18,-396.87 120.17,-400.55 120.17,-400.55 C120.17,-400.55 126.77,-416.63 126.77,-416.63 C128.35,-420.47 131.9,-423.03 136.04,-423.32 C140.19,-423.59 144.06,-421.55 146.15,-417.97 C146.15,-417.97 154.9,-402.94 154.9,-402.94 C154.9,-402.94 172.23,-401.63 172.23,-401.63 C176.37,-401.32 179.91,-398.73 181.46,-394.88 C183.01,-391.03 182.26,-386.72 179.49,-383.62 C179.49,-383.62 167.91,-370.66 167.91,-370.66 C167.91,-370.66 172.02,-353.77 172.02,-353.77 C173,-349.73 171.63,-345.57 168.45,-342.9 C165.27,-340.24 160.93,-339.62 157.13,-341.3 C157.13,-341.3 141.22,-348.31 141.22,-348.31 C141.22,-348.31 126.43,-339.18 126.43,-339.18 C124.67,-338.09 122.71,-337.55 120.74,-337.55z  M136.79 -415.12 C136.73,-415.12 136.66,-415.12 136.61,-415.11 C136.12,-415.08 134.94,-414.86 134.38,-413.5 C134.38,-413.5 126.96,-395.42 126.96,-395.42 C126.44,-394.17 125.35,-393.25 124.02,-392.97 C124.02,-392.97 104.92,-388.83 104.92,-388.83 C103.49,-388.52 103.06,-387.39 102.94,-386.92 C102.82,-386.44 102.67,-385.24 103.79,-384.3 C103.79,-384.3 118.69,-371.65 118.69,-371.65 C119.72,-370.77 120.26,-369.45 120.12,-368.1 C120.12,-368.1 118.15,-348.65 118.15,-348.65 C118,-347.2 118.95,-346.44 119.36,-346.18 C119.77,-345.92 120.87,-345.4 122.11,-346.17 C122.11,-346.17 138.74,-356.44 138.74,-356.44 C139.89,-357.15 141.32,-357.25 142.56,-356.7 C142.56,-356.7 160.45,-348.82 160.45,-348.82 C161.79,-348.23 162.8,-348.9 163.17,-349.21 C163.54,-349.52 164.37,-350.4 164.03,-351.82 C164.03,-351.82 159.41,-370.81 159.41,-370.81 C159.09,-372.13 159.43,-373.52 160.34,-374.53 C160.34,-374.53 173.36,-389.1 173.36,-389.1 C174.33,-390.19 174.01,-391.36 173.83,-391.81 C173.65,-392.26 173.07,-393.32 171.61,-393.43 C171.61,-393.43 152.12,-394.91 152.12,-394.91 C150.77,-395.01 149.56,-395.77 148.88,-396.94 C148.88,-396.94 139.04,-413.83 139.04,-413.83 C139.04,-413.83 139.04,-413.83 139.04,-413.83 C138.39,-414.95 137.36,-415.12 136.79,-415.12z "/></g><g id="_R_G_L_0_G"><path id="_R_G_L_0_G_D_0_P_0" fill="#c0eb75" fill-opacity="1" fill-rule="nonzero" d=" M68.97 -85.75 C68.97,-85.75 78.81,-68.86 78.81,-68.86 C78.81,-68.86 98.3,-67.39 98.3,-67.39 C103.85,-66.97 106.51,-60.36 102.8,-56.21 C102.8,-56.21 89.78,-41.64 89.78,-41.64 C89.78,-41.64 94.4,-22.65 94.4,-22.65 C95.72,-17.24 90.26,-12.67 85.17,-14.91 C85.17,-14.91 67.28,-22.79 67.28,-22.79 C67.28,-22.79 50.65,-12.53 50.65,-12.53 C45.91,-9.6 39.88,-13.38 40.44,-18.92 C40.44,-18.92 42.41,-38.37 42.41,-38.37 C42.41,-38.37 27.51,-51.01 27.51,-51.01 C23.26,-54.62 24.99,-61.52 30.43,-62.7 C30.43,-62.7 49.53,-66.84 49.53,-66.84 C49.53,-66.84 56.96,-84.92 56.96,-84.92 C59.07,-90.07 66.17,-90.56 68.97,-85.75z "/><path id="_R_G_L_0_G_D_1_P_0" fill="#677f33" fill-opacity="1" fill-rule="nonzero" d=" M102.8 -56.21 C102.8,-56.21 89.78,-41.63 89.78,-41.63 C89.78,-41.63 94.4,-22.65 94.4,-22.65 C95.72,-17.24 90.26,-12.67 85.17,-14.9 C85.17,-14.9 67.29,-22.79 67.29,-22.79 C67.29,-22.79 50.64,-12.53 50.64,-12.53 C46.27,-9.82 40.77,-12.86 40.42,-17.71 C41.41,-17.81 42.39,-18.13 43.34,-18.7 C43.34,-18.7 59.97,-28.96 59.97,-28.96 C59.97,-28.96 77.85,-21.07 77.85,-21.07 C82.95,-18.84 88.41,-23.4 87.09,-28.82 C87.09,-28.82 82.47,-47.8 82.47,-47.8 C82.47,-47.8 95.5,-62.37 95.5,-62.37 C96.84,-63.88 97.35,-65.72 97.18,-67.47 C97.18,-67.47 98.31,-67.39 98.31,-67.39 C103.86,-66.97 106.52,-60.36 102.8,-56.21z "/><path id="_R_G_L_0_G_D_2_P_0" fill="#ffffff" fill-opacity="1" fill-rule="nonzero" d=" M70.26 -83.53 C68.05,-83.21 66,-81.84 65.01,-79.44 C65.01,-79.44 57.58,-61.36 57.58,-61.36 C57.58,-61.36 38.49,-57.22 38.49,-57.22 C33.04,-56.04 31.32,-49.13 35.55,-45.53 C35.55,-45.53 50.47,-32.89 50.47,-32.89 C50.47,-32.89 48.49,-13.44 48.49,-13.44 C48.42,-12.83 48.45,-12.25 48.55,-11.68 C44.33,-10.72 39.97,-14.18 40.43,-18.92 C40.43,-18.92 42.41,-38.37 42.41,-38.37 C42.41,-38.37 27.51,-51.01 27.51,-51.01 C23.26,-54.62 24.98,-61.52 30.43,-62.7 C30.43,-62.7 49.53,-66.84 49.53,-66.84 C49.53,-66.84 56.95,-84.92 56.95,-84.92 C59.08,-90.06 66.18,-90.56 68.97,-85.75 C68.97,-85.75 70.26,-83.53 70.26,-83.53z "/><path id="_R_G_L_0_G_D_3_P_0" fill="#221647" fill-opacity="1" fill-rule="nonzero" d=" M47.12 -7.4 C45.13,-7.4 43.14,-7.96 41.37,-9.07 C37.85,-11.27 35.93,-15.2 36.35,-19.34 C36.35,-19.34 38.1,-36.63 38.1,-36.63 C38.1,-36.63 24.84,-47.88 24.84,-47.88 C21.68,-50.56 20.34,-54.74 21.35,-58.76 C22.35,-62.79 25.5,-65.84 29.56,-66.72 C29.56,-66.72 46.55,-70.4 46.55,-70.4 C46.55,-70.4 53.15,-86.48 53.15,-86.48 C54.73,-90.32 58.28,-92.88 62.42,-93.17 C66.58,-93.45 70.44,-91.41 72.53,-87.82 C72.53,-87.82 72.53,-87.82 72.53,-87.82 C72.53,-87.82 81.28,-72.79 81.28,-72.79 C81.28,-72.79 98.61,-71.49 98.61,-71.49 C102.75,-71.17 106.29,-68.59 107.84,-64.73 C109.39,-60.88 108.64,-56.57 105.87,-53.47 C105.87,-53.47 94.29,-40.51 94.29,-40.51 C94.29,-40.51 98.4,-23.62 98.4,-23.62 C99.38,-19.58 98.01,-15.42 94.83,-12.76 C91.65,-10.09 87.31,-9.47 83.51,-11.15 C83.51,-11.15 67.6,-18.16 67.6,-18.16 C67.6,-18.16 52.81,-9.03 52.81,-9.03 C51.05,-7.94 49.09,-7.4 47.12,-7.4z  M63.17 -84.97 C63.1,-84.97 63.04,-84.97 62.99,-84.97 C62.5,-84.93 61.31,-84.71 60.76,-83.36 C60.76,-83.36 53.34,-65.28 53.34,-65.28 C52.82,-64.02 51.73,-63.1 50.4,-62.82 C50.4,-62.82 31.3,-58.68 31.3,-58.68 C29.87,-58.37 29.44,-57.24 29.32,-56.77 C29.21,-56.3 29.05,-55.09 30.16,-54.15 C30.16,-54.15 45.07,-41.5 45.07,-41.5 C46.1,-40.63 46.64,-39.3 46.5,-37.95 C46.5,-37.95 44.53,-18.51 44.53,-18.51 C44.38,-17.05 45.33,-16.29 45.74,-16.04 C46.15,-15.78 47.24,-15.26 48.49,-16.03 C48.49,-16.03 65.12,-26.29 65.12,-26.29 C66.27,-27.01 67.7,-27.1 68.94,-26.55 C68.94,-26.55 86.83,-18.67 86.83,-18.67 C88.16,-18.09 89.18,-18.75 89.55,-19.06 C89.92,-19.37 90.75,-20.25 90.41,-21.67 C90.41,-21.67 85.79,-40.67 85.79,-40.67 C85.47,-41.98 85.81,-43.37 86.72,-44.38 C86.72,-44.38 99.74,-58.95 99.74,-58.95 C100.71,-60.04 100.39,-61.21 100.21,-61.66 C100.03,-62.11 99.45,-63.18 97.99,-63.29 C97.99,-63.29 78.5,-64.76 78.5,-64.76 C77.15,-64.86 75.94,-65.62 75.26,-66.79 C75.26,-66.79 65.42,-83.68 65.42,-83.68 C64.77,-84.8 63.74,-84.97 63.17,-84.97z "/></g></g><g id="time_group"/></svg>