<?xml version="1.0" encoding="utf-8"?>
<!-- Generator: Adobe Illustrator 26.2.1, SVG Export Plug-In . SVG Version: 6.00 Build 0)  -->
<svg version="1.1" id="Layer_1" xmlns="http://www.w3.org/2000/svg" xmlns:xlink="http://www.w3.org/1999/xlink" x="0px" y="0px"
	 viewBox="0 0 1328.96 258.85" style="enable-background:new 0 0 1328.96 258.85;" xml:space="preserve">
<style type="text/css">
	.st0{fill:#C0EB75;}
	.st1{fill:#5F3DC4;}
</style>
<g>
	<rect class="st0" width="303.96" height="237.98"/>
	<g>
		<path d="M155.92,70.57v133.8h-29.41v-13.5h-0.48c-5.3,7.23-13.98,17.84-34.47,17.84c-24.35,0-38.09-12.05-44.84-21.21
			c-9.88-14.22-9.88-35.92-9.88-47.01V70.57h32.06v68.23c0,10.85,0,40.5,27.97,40.5c20.25,0,27-19.04,27-40.26V70.57H155.92z"/>
		<path d="M163.16,70.57h29.41v15.67h0.48c15.91-20.25,37.13-20.25,43.39-20.25c43.88,0,67.02,37.85,67.02,70.88
			c0,39.54-29.17,71.84-67.02,71.84c-22.66,0-32.79-9.16-41.22-17.12v57.38h-32.06V70.57z M232.35,179.29
			c17.12,0,39.05-14.46,39.05-41.95c0-24.59-18.81-41.95-38.57-41.95c-20.01,0-39.54,16.15-39.54,41.95
			C193.29,167,217.16,179.29,232.35,179.29z"/>
		<path d="M306.36,70.57h29.41V81.9h0.48c2.65-4.34,11.81-15.91,34.96-15.91c7.23,0,26.04,1.69,38.57,20.98
			c13.98-20.01,33.75-20.98,43.15-20.98c26.28,0,39.3,13.98,44.12,20.73c5.31,6.99,10.13,19.77,10.13,39.54v78.11h-32.06v-74.25
			c0-7.71,0-34.72-25.31-34.72c-8.92,0-17.6,4.82-22.18,12.54c-4.58,7.23-4.82,19.05-4.82,27.24v69.19h-32.06v-74.25
			c0-18.32-6.99-34.72-26.76-34.72c-25.55,0-25.55,27.97-25.55,42.19v66.78h-32.06V70.57z"/>
		<path d="M650.14,204.36h-29.41v-16.63c-10.13,12.05-29.89,20.97-46.77,20.97c-34.47,0-65.09-27.48-65.09-72.08
			c0-40.98,29.89-70.64,67.02-70.64c27.24,0,43.39,19.53,44.36,21.46h0.48V70.57h29.41V204.36z M580.71,95.4
			c-26.28,0-39.78,22.66-39.78,42.67c0,22.66,16.88,41.22,39.78,41.22c22.18,0,39.05-17.36,39.05-42.19
			C619.76,109.38,599.75,95.4,580.71,95.4z"/>
		<path d="M656.89,70.57h29.65v11.57c5.3-5.06,16.39-16.15,36.65-16.15c11.57,0,29.17,5.06,40.26,18.56
			c12.3,14.7,12.3,37.13,12.3,47.49v72.32h-32.06v-66.05c0-11.09,0-42.91-27-42.91c-5.79,0-16.15,2.89-21.94,11.81
			c-5.79,8.2-5.79,22.18-5.79,33.51v63.65h-32.06V70.57z"/>
		<path d="M918.7,204.36h-29.41v-16.63c-10.13,12.05-29.89,20.97-46.77,20.97c-34.47,0-65.09-27.48-65.09-72.08
			c0-40.98,29.89-70.64,67.02-70.64c27.24,0,43.39,19.53,44.36,21.46h0.48V70.57h29.41V204.36z M849.27,95.4
			c-26.28,0-39.78,22.66-39.78,42.67c0,22.66,16.88,41.22,39.78,41.22c22.18,0,39.05-17.36,39.05-42.19
			C888.32,109.38,868.31,95.4,849.27,95.4z"/>
		<path d="M1062.62,70.57v109.21c0,64.37-47.73,79.07-73.05,79.07c-27.48,0-55.69-14.46-67.26-44.36h36.64
			c12.54,14.95,27.97,14.95,33.03,14.95c18.08,0,39.29-12.54,40.98-41.71l-0.48-0.48c-4.34,6.03-16.63,21.45-43.88,21.45
			c-32.54,0-68.47-27.72-68.47-72.56c0-41.95,34.23-70.16,68.23-70.16c27.48,0,39.05,15.67,42.67,20.98h0.48V70.57H1062.62z
			 M991.26,95.4c-19.29,0-39.05,15.67-39.05,40.98c0,27.24,20.49,42.91,40.02,42.91c19.29,0,38.33-16.39,38.33-43.15
			C1030.56,117.09,1015.13,95.4,991.26,95.4z"/>
		<path d="M1095.17,151.81c1.45,8.68,13.98,27.48,36.89,27.48c14.22,0,24.83-6.03,30.86-17.12h33.75
			c-7.71,24.11-33.03,46.53-64.61,46.53c-40.74,0-70.64-31.82-70.64-70.88c0-37.85,27.97-71.84,70.4-71.84
			c43.88,0,69.19,35.92,69.19,69.67c0,6.27-0.96,11.81-1.93,16.15H1095.17z M1168.22,126.01c-3.62-21.46-19.05-30.62-36.16-30.62
			c-13.02,0-31.82,5.79-37.85,30.62H1168.22z"/>
		<path d="M1205.83,70.57h29.41v11.81h0.48c6.03-8.68,12.05-16.39,28.69-16.39h2.65v31.1c-29.17,1.21-29.17,24.11-29.17,32.06v75.22
			h-32.06V70.57z"/>
	</g>
	<circle class="st1" cx="1294.96" cy="169.98" r="34"/>
</g>
</svg>
